<svg xmlns="http://www.w3.org/2000/svg" viewBox="0 0 512 512"><circle cx="256" cy="256" r="256" fill="#ffedb5"/><path d="M222.386 222.613L99.785 253.635l80.27 80.27-66.205 44.804 133.115 133.115c3.001.103 6.01.176 9.035.176 133.303 0 242.79-101.89 254.874-232.034l-108.97-108.97-17.158 26.453L272.632 85.333l6.225 37.533-48.43-50.042-2.308 57.896-5.733 91.893z" fill="#fee187"/><path fill="#a4c49d" d="M159.577 286.696l70.851-213.871 70.852 213.871z"/><path fill="#8bc180" d="M230.428 72.825l-.43 1.299v212.572h71.282z"/><path d="M168.943 372.876c.567.053 1.141.086 1.724.086 9.997 0 18.101-8.104 18.101-18.101s-8.104-18.101-18.101-18.101c-7.251 0-13.488 4.274-16.377 10.43a18.494 18.494 0 0 0-1.724-.086c-8.008 0-14.789 5.206-17.175 12.414a18.123 18.123 0 0 0-3.512-.347c-9.997 0-18.101 8.104-18.101 18.101 0 .484.034.962.072 1.436h50.738a18.186 18.186 0 0 0 4.355-5.832z" fill="#6caf5f"/><g fill="#477f3c"><path d="M339.609 372.876c.567.053 1.141.086 1.724.086 9.997 0 18.101-8.104 18.101-18.101s-8.104-18.101-18.101-18.101c-7.251 0-13.488 4.274-16.377 10.43a18.494 18.494 0 0 0-1.724-.086c-8.008 0-14.789 5.206-17.175 12.414a18.123 18.123 0 0 0-3.512-.347c-9.997 0-18.101 8.104-18.101 18.101 0 .484.034.962.072 1.436h50.738a18.157 18.157 0 0 0 4.355-5.832z"/><path d="M284.372 378.709c.038-.476.072-.952.072-1.436 0-9.997-8.104-18.101-18.101-18.101-.898 0-1.772.088-2.636.217-.355-.143-.717-.278-1.081-.414-2.543-6.921-9.169-11.869-16.972-11.869-.583 0-1.155.033-1.724.086-2.889-6.156-9.126-10.43-16.377-10.43-2.131 0-4.167.388-6.066 1.064-5.208-6.642-13.284-10.924-22.378-10.924-15.71 0-28.444 12.734-28.444 28.444 0 9.802 4.96 18.446 12.505 23.561h101.202v-.198z"/></g><path fill="#66382f" d="M311.63 282.686h48.012v96.025H311.63z"/><path fill="#562d28" d="M335.162 282.686h24.483v96.025h-24.483z"/><path fill="#66382f" d="M258.086 282.686h29.098v96.025h-29.098z"/><path fill="#562d28" d="M272.636 282.686h14.55v96.025h-14.55z"/><path fill="#6d3e38" d="M158.134 282.686h40.738v96.025h-40.738z"/><path fill="#5b2f2c" d="M178.286 282.686h20.589v96.025h-20.589z"/><circle cx="335.627" cy="220.85" r="82.937" fill="#3d6d32"/><path d="M335.632 137.919c-.16 0-.317.01-.476.012v165.838c.16.002.317.012.476.012 45.801 0 82.932-37.129 82.932-82.932s-37.129-82.93-82.932-82.93z" fill="#2e5e24"/><path fill="#6caf5f" d="M209.632 325.398l63-240.065 63 240.065z"/><path d="M272.632 85.333l-.398 1.519v238.546h63.398zm-32.313 122.555c.569-2.363.903-4.818.903-7.358 0-17.32-14.041-31.361-31.361-31.361-1.591 0-3.143.157-4.672.386-3.91-10.983-14.367-18.86-26.691-18.86s-22.781 7.877-26.691 18.86c-1.527-.229-3.079-.386-4.672-.386-17.32 0-31.361 14.041-31.361 31.361 0 2.539.334 4.994.903 7.358-13.217 2.41-23.243 13.958-23.243 27.87 0 15.66 12.695 28.355 28.355 28.355 0 15.074 11.773 27.365 26.619 28.267 6.463 8.644 16.748 14.265 28.372 14.265 11.623 0 21.907-5.62 28.37-14.264.565.034 1.127.086 1.703.086 15.66 0 28.355-12.695 28.355-28.355 15.66 0 28.355-12.695 28.355-28.355.001-13.911-10.026-25.459-23.244-27.869z" fill="#477f3c"/><path d="M240.319 207.888c.569-2.363.903-4.818.903-7.358 0-17.32-14.041-31.361-31.361-31.361-1.591 0-3.143.157-4.672.386-3.91-10.983-14.367-18.86-26.691-18.86-.074 0-.145.009-.219.009V306.6c11.004-.462 20.689-5.949 26.871-14.219.565.034 1.127.086 1.703.086 15.66 0 28.355-12.695 28.355-28.355 15.66 0 28.355-12.695 28.355-28.355.001-13.911-10.026-25.459-23.244-27.869z" fill="#2e5e24"/></svg>