<svg xmlns="http://www.w3.org/2000/svg" viewBox="0 0 512 512"><circle cx="256" cy="256" r="256" fill="#efc84a"/><path d="M96.743 458.132l120.429-115.067c.053.026.108.046.161.071l12.65-12.077-39.2-39.2L60.122 422.521a257.42 257.42 0 0 0 36.621 35.611z" fill="#334d5c"/><path d="M190.783 291.858l-34.72-34.72-122.15 127.949a256.57 256.57 0 0 0 26.209 37.434l130.661-130.663z" fill="#334d5c"/><path d="M96.743 458.132l120.429-115.067c.053.026.108.046.161.071l12.65-12.077-39.2-39.2L60.122 422.521a257.42 257.42 0 0 0 36.621 35.611z" opacity=".4" fill="#5d5d5d"/><path d="M342.667 144.455c-35.893-35.895-92.047-39.159-131.634-9.754l141.388 141.388c29.404-39.587 26.141-95.741-9.754-131.634z" fill="#263a45"/><path d="M199.732 287.391c35.893 35.894 92.496 38.711 131.633 9.754L189.978 155.757c-28.958 39.139-26.14 95.74 9.754 131.634z" fill="#19272e"/><path d="M284.435 287h8v8c0 3 5 3 5 0v-8h8c3 0 3-5 0-5h-8v-8c0-3-5-3-5 0v8h-8c-3 0-3 5 0 5zm-18-18h7v7c0 4 6 4 6 0v-7h7c4 0 4-6 0-6h-7v-7c0-4-6-4-6 0v7h-7c-4 0-4 6 0 6zm-19-19h8v8c0 3 5 3 5 0v-8h8c3 0 3-5 0-5h-8v-8c0-3-5-3-5 0v8h-8c-3 0-3 5 0 5zm-18-18h8v8c0 3 5 3 5 0v-8h7c4 0 4-6 0-6h-7v-7c0-4-5-4-5 0v7h-8c-4 0-4 6 0 6zm-19-19h8v8c0 4 6 4 6 0v-8h7c4 0 4-5 0-5h-7v-8c0-3-6-3-6 0v8h-8c-3 0-3 5 0 5zm-10-24h-8c-4 0-4 6 0 6h8v8c0 3 5 3 5 0v-8h8c3 0 3-6 0-6h-8v-7c0-4-5-4-5 0v7zm71 106h8c3 0 3-6 0-6h-8v-7c0-4-5-4-5 0v7h-8c-4 0-4 6 0 6h8v8c0 3 5 3 5 0v-8zm-23-11c0 4 5 4 5 0v-7h8c3 0 3-6 0-6h-8v-7c0-4-5-4-5 0v7h-8c-4 0-4 6 0 6h8v7zm-26-25h7v7c0 4 6 4 6 0v-7h7c4 0 4-6 0-6h-7v-7c0-4-6-4-6 0v7h-7c-4 0-4 6 0 6zm-5-19h7c4 0 4-5 0-5h-7v-8c0-3-6-3-6 0v8h-8c-3 0-3 5 0 5h8v8c0 4 6 4 6 0v-8zm-18-18h7c4 0 4-5 0-5h-7v-8c0-3-6-3-6 0v8h-8c-3 0-3 5 0 5h8v8c0 3 6 3 6 0v-8zm43 76h7c4 0 4-6 0-6h-7v-8c0-3-6-3-6 0v8h-8c-3 0-3 6 0 6h8v7c0 4 6 4 6 0v-7zm-28-18h8c4 0 4-6 0-6h-8v-7c0-4-5-4-5 0v7h-8c-3 0-3 6 0 6h8v7c0 4 5 4 5 0v-7zm-17-27h8c3 0 3-5 0-5h-8v-8c0-3-5-4-5 0v8h-8c-4 0-4 5 0 5h8v8c0 3 5 3 5 0v-8z" fill="#111c21"/><path d="M340.065 299.377c-1.74 1.74-5.025 1.441-7.49-1.023L188.768 154.547c-2.464-2.464-3.211-6.197-1.471-7.938l14.876-14.875c1.74-1.741 5.187-.707 7.65 1.756l143.809 143.809c2.463 2.464 3.049 5.462 1.309 7.202l-14.876 14.876zM231.551 340.69c-4.948 4.948-12.971 4.948-17.92 0l-67.648-67.647c-4.948-4.949-4.948-12.972 0-17.92l11.648-11.648c4.948-4.948 12.971-4.948 17.92 0l67.647 67.648c4.948 4.948 4.948 12.971 0 17.92l-11.647 11.647z" fill="#2d4552"/><path d="M82.981 333.689l51.491 51.492 18.961 18.96 9.167-8.752-42.291-42.292-28.576-28.575-8.752 9.167z" fill="#1c2b33"/><path fill="#497085" d="M162.112 289.172L151.36 278.42l29.567-29.568 10.753 10.752zm10.754 10.751l-4.032-4.031 29.568-29.569 4.032 4.032z"/><path d="M349.466 295.352a2.663 2.663 0 0 1-3.766 0L191.322 140.974a2.663 2.663 0 0 1 0-3.766l1.61-1.61a2.663 2.663 0 0 1 3.766 0l154.379 154.378a2.665 2.665 0 0 1 0 3.766l-1.611 1.61z" fill="#263a45"/><path d="M257.435 146h-8v-8c0-4-6-4-6 0v8h-7c-4 0-4 5 0 5h7v8c0 3 6 3 6 0v-8h8c3 0 3-5 0-5zm18 18h-8v-8c0-3-5-3-5 0v8h-8c-3 0-3 6 0 6h8v7c0 4 5 4 5 0v-7h8c4 0 4-6 0-6zm18 19h-7v-8c0-4-6-4-6 0v8h-7c-4 0-4 5 0 5h7v8c0 3 6 3 6 0v-8h7c4 0 4-5 0-5zm19 18h-8v-8c0-3-5-3-5 0v8h-8c-3 0-3 5 0 5h8v8c0 4 5 4 5 0v-8h8c3 0 3-5 0-5zm18 18h-7v-7c0-4-6-4-6 0v7h-7c-4 0-4 6 0 6h7v8c0 3 6 3 6 0v-8h7c4 0 4-6 0-6zm11 24h8c3 0 3-5 0-5h-8v-8c0-3-5-3-5 0v8h-8c-3 0-3 5 0 5h8v8c0 4 5 4 5 0v-8zm-72-105h-7c-4 0-4 5 0 5h7v8c0 4 6 4 6 0v-8h8c3 0 3-5 0-5h-8v-8c0-3-6-3-6 0v8zm24 11c0-4-5-4-5 0v7h-8c-3 0-3 6 0 6h8v7c0 4 5 4 5 0v-7h8c3 0 3-6 0-6h-8v-7zm26 25h-8v-7c0-4-5-4-5 0v7h-8c-3 0-3 6 0 6h8v7c0 4 5 4 5 0v-7h8c4 0 4-6 0-6zm5 18h-8c-3 0-3 6 0 6h8v8c0 3 5 3 5 0v-8h8c4 0 4-6 0-6h-8v-7c0-4-5-4-5 0v7zm18 19h-7c-4 0-4 5 0 5h7v8c0 3 6 3 6 0v-8h7c4 0 4-5 0-5h-7v-8c0-4-6-4-6 0v8zm-43-76h-7c-4 0-4 6 0 6h7v7c0 4 6 4 6 0v-7h7c4 0 4-6 0-6h-7v-7c0-4-6-4-6 0v7zm27 18h-7c-4 0-4 6 0 6h7v7c0 4 6 4 6 0v-7h7c4 0 4-6 0-6h-7v-7c0-4-6-4-6 0v7zm18 27h-8c-4 0-4 5 0 5h8v8c0 3 5 3 5 0v-8h8c3 0 3-5 0-5h-8v-8c0-3-5-3-5 0v8z" fill="#19272e"/><path d="M217.172 343.065L96.743 458.132c.023.021.049.04.074.06l120.516-115.056c-.053-.026-.108-.045-.161-.071z" fill="#334d5c"/><path d="M352.421 276.089c29.404-39.587 26.137-95.962-9.756-131.854-.676-.676-1.137-1.329-2.051-2.206L177.791 304.851l35.84 35.84a12.642 12.642 0 0 0 3.465 2.446l.076-.072c.053.026.108.046.161.071 4.713 2.246 10.547 1.226 14.437-2.663l11.647-11.648c4.234-4.233 4.822-10.557 1.781-15.442 29.111 7.718 61.426 2.028 86.166-16.237l1.211 1.21c2.465 2.464 5.75 2.763 7.49 1.023l4.381-4.382 2.69 2.688 5.824-5.824-2.689-2.688 4.67-4.67c1.74-1.74 1.154-4.738-1.309-7.202l-1.211-1.212z" opacity=".4" fill="#5d5d5d"/></svg>