<svg xmlns="http://www.w3.org/2000/svg" viewBox="0 0 501.999 501.999"><path d="M230.88 212.952c0 81.28-33.944 183.144-83.656 183.144C97.528 396.096 67 298.152 67 216.872 67 135.616 112.472 0 162.184 0s68.696 131.688 68.696 212.952z" fill="#0d8dbf"/><path d="M162.184 0c49.712 0 68.696 131.688 68.696 212.952 0 81.28-33.944 183.144-83.656 183.144C97.528 396.096 67 298.152 67 216.872" fill="#136fa8"/><path d="M162.184 0c49.712 0 68.696 131.688 68.696 212.952 0 81.28-33.944 183.144-83.656 183.144" fill="#075d91"/><path d="M77.592 350.208c3.712-207.36 25.512-208.896 70.856-208.896s66.632-12.048 68.888 265.944c.592 74.104-30.736 101.248-75.408 93.456-73.544-12.856-65.672-76.392-64.336-150.504z" fill="#30697f"/><path d="M148.448 141.312c45.344 0 66.632-12.048 68.888 265.944.592 74.104-30.736 101.248-75.408 93.456-73.536-12.848-65.672-76.392-64.336-150.496" fill="#26556d"/><path d="M148.448 141.312c45.344 0 66.632-12.048 68.888 265.944.592 74.104-30.736 101.248-75.408 93.456" fill="#174456"/><path d="M196.568 347.288c-2.496 148.472-25.36 132.344-53.912 131.864-28.552-.472-51.512-10.176-49.464-133.592 1.24-73.296 24.208-63.104 52.76-62.608 28.528.48 51.848-8.936 50.616 64.336z" fill="#6591a0"/><path d="M196.568 347.288c-2.496 148.472-25.36 132.344-53.912 131.864-28.552-.472-51.512-10.176-49.464-133.592 1.24-73.296 24.208-63.104 52.76-62.608 28.528.48 51.848-8.936 50.616 64.336z" fill="#75a3af"/><path d="M145.952 349.688c23.968.4 44.224-6.16 49.384 35.128.584-11.168.992-23.616 1.224-37.52 1.232-73.272-22.088-63.856-50.616-64.336-28.552-.496-51.512-10.688-52.76 62.608-.32 19.248-.032 35.72.792 49.832 4.408-54.688 25.84-46.168 51.976-45.712z" fill="#6591a0"/><path d="M271.12 212.952c0 81.28 33.944 183.144 83.656 183.144 49.696 0 80.224-97.944 80.224-179.224C435 135.616 389.52 0 339.816 0c-49.712 0-68.696 131.688-68.696 212.952z" fill="#0d8dbf"/><path d="M339.816 0c-49.712 0-68.696 131.688-68.696 212.952 0 81.28 33.944 183.144 83.656 183.144 49.696 0 80.224-97.944 80.224-179.224" fill="#136fa8"/><path d="M339.816 0c-49.712 0-68.696 131.688-68.696 212.952 0 81.28 33.944 183.144 83.656 183.144" fill="#075d91"/><path d="M424.408 350.208c-3.712-207.36-25.52-208.896-70.856-208.896-45.344 0-66.648-12.048-68.888 265.944-.592 74.104 30.736 101.248 75.392 93.456 73.544-12.856 65.672-76.392 64.352-150.504z" fill="#30697f"/><path d="M353.552 141.312c-45.344 0-66.648-12.048-68.888 265.944-.592 74.104 30.736 101.248 75.392 93.456 73.536-12.848 65.672-76.392 64.344-150.496" fill="#26556d"/><path d="M353.552 141.312c-45.344 0-66.648-12.048-68.888 265.944-.592 74.104 30.736 101.248 75.392 93.456" fill="#174456"/><path d="M305.432 347.288c2.496 148.472 25.36 132.344 53.912 131.864 28.552-.472 51.52-10.176 49.464-133.592-1.232-73.296-24.208-63.104-52.76-62.608-28.536.48-51.84-8.936-50.616 64.336z" fill="#6591a0"/><path d="M305.432 347.288c2.496 148.472 25.36 132.344 53.912 131.864 28.552-.472 51.52-10.176 49.464-133.592-1.232-73.296-24.208-63.104-52.76-62.608-28.536.48-51.84-8.936-50.616 64.336z" fill="#75a3af"/><path d="M356.048 349.688c-23.968.4-44.232-6.16-49.392 35.128-.576-11.168-.992-23.616-1.216-37.52-1.224-73.272 22.08-63.856 50.616-64.336 28.552-.496 51.52-10.688 52.76 62.608.32 19.248.032 35.72-.792 49.832-4.416-54.688-25.856-46.168-51.976-45.712z" fill="#6591a0"/></svg>