<svg xmlns="http://www.w3.org/2000/svg" viewBox="0 0 460 460"><path d="M437.109 207.11C437.109 92.726 344.386 0 230.001 0S22.891 92.726 22.891 207.11c0 114.376 92.725 207.101 207.11 207.101s207.108-92.725 207.108-207.101z" fill="#eaebed"/><path d="M332.631 125.537h-66.296v260.557c-.01.336-.026.671-.026 1.009l.024 39.953c0 18.194 14.804 32.943 33.067 32.943 18.262 0 33.066-14.749 33.181-32.943v-39.953l-.001-.03.051-.028V125.537zM193.667 387.094V125.537h-66.295l.024 261.508.001.001-.001.058.024 39.953c0 18.194 14.804 32.943 33.067 32.943 18.262 0 33.066-14.749 33.181-32.943v-39.953l-.001-.01z" fill="#dcdee0"/><path fill="#ea7053" d="M127.372 172.696v11.268l33.148 34.413 33.147-34.413v-11.268L160.52 207.11z"/><path opacity=".27" fill="#ea7053" d="M127.372 229.665v11.269l33.148 34.413 33.147-34.413v-11.269L160.52 264.08z"/><path fill="#ea7053" d="M266.335 172.696v11.268l33.148 34.413 33.148-34.413v-11.268l-33.148 34.414z"/><path opacity=".27" fill="#ea7053" d="M266.335 229.665v11.269l33.148 34.413 33.148-34.413v-11.269l-33.148 34.415z"/><path d="M160.52 264.08l33.146-34.414V60.149a205.727 205.727 0 0 0-66.295 24.002v145.514l33.149 34.415zm138.963 0l33.147-34.414V84.152a205.715 205.715 0 0 0-66.296-24.002v169.516l33.149 34.414z" fill="#ea7053"/><path d="M65.99 388.901a6.64 6.64 0 0 0-6.64 6.64 6.64 6.64 0 0 0 6.64 6.636h7.495v12.034h7.059v-12.034h7.495a6.64 6.64 0 0 0 6.64-6.636 6.64 6.64 0 0 0-6.64-6.64h-3.965V60.149a208.557 208.557 0 0 0-14.12 15.504V388.9H65.99zm305.972 0a6.64 6.64 0 0 0 0 13.276h7.497v12.034h7.06v-12.034h7.494a6.64 6.64 0 0 0 6.638-6.636 6.64 6.64 0 0 0-6.638-6.64h-3.966V75.656a208.174 208.174 0 0 0-14.12-15.505V388.9h-3.965z" fill="#757e86"/><path fill="#00b5ae" d="M266.335 202.043l66.296-20.155v-34.881l-66.296 20.154zm66.296-102.845l-66.296 20.154v34.882l66.296-20.155zM127.372 202.043l66.295-20.155v-34.881l-66.295 20.154zm0-82.691v34.882l66.295-20.155V99.198z"/><path d="M332.631 97.167V27.182A205.724 205.724 0 0 0 266.335 3.18v93.986h66.296zM193.667 84.152V3.18a205.71 205.71 0 0 0-66.295 24.001v56.97h66.295z" fill="#ea7053"/></svg>