<svg width="1230" height="427" viewBox="0 0 1230 427" xmlns="http://www.w3.org/2000/svg" xmlns:xlink="http://www.w3.org/1999/xlink"><title>yeti</title><defs><path id="a" d="M0 0h360v244H0z"/><path id="c" d="M0 0h44v117H0z"/><path id="e" d="M23.977 19.86L1110.367.155l-6.945 199.836-190.977 65.313-8.617 179.945-903.64 1.813z"/></defs><g fill="none" fill-rule="evenodd"><g transform="translate(886 191)"><mask id="b" fill="#fff"><use xlink:href="#a"/></mask><g fill="#FFF" mask="url(#b)"><path d="M-655.2 151c-.5 1.3-.6 1.7-.8 2.2-.9 11.4-1.6 22.7-2.7 34.3-.8 8.2-2.2 16.4-4.7 24.5-1.3 4.3-3.8 5.2-8.7 4.4-3.8-.6-5.5-2.4-6.9-5.4-3.6-8.2-6.3-16.4-8.5-24.9-2.5-10.3-4.1-20.7-5.5-31.1-1.1-8.4-2.5-16.4-4.3-24.3-1.7-8.4-3.9-16.6-6-24.9-.3-1.4-1.1-2.7-1.7-4.1 6.2-2.5 11.2-1.1 13.1 4.1 2.4 6.3 4.3 12.8 6 19.3 1.7 6.8 3.2 13.6 4.4 20.4 1.7 9.3 2.8 18.6 4.6 27.9.9 5.5 2.7 10.9 4.1 16.3.2.6.8 1.3 1.4 2.1 3.8-24.2 3.2-48.5 7.4-72.8 2.8-.5 5.7-1.3 8.5-1.6 2.7-.3 3.5.3 4.3 2.5 2.5 7.6 5.2 15.2 7.3 22.9 2.1 7.7 3.2 15.8 5.1 23.7 2.2 9.5 4.9 18.9 7.3 28.4.3.9.5 2.1 2.4 2.1 1.3-9.5 1.7-18.9 1.9-28.3.2-9.5 2.2-18.9 1.1-28.9 2.5-.8 5.4-1.9 8.2-2.5 1.6-.5 3 .2 3.9 1.6.6.9 1.6 1.9 2.8 3.5.5-1.4.8-2.1.8-2.7.8-5.4 1.4-10.7 2.4-16.1 1.4-7.7 5.1-14.7 8.5-22.1 4.6-.2 9.3-.6 14.1-.3 6.6.5 10.1 4.6 12.6 9.6 3 6.6.6 12.8-2.1 18.6-1.7 3.8-4.1 7.3-6.8 10.6-3.9 5.2-9 9.2-17.2 9.8-.2 2.2-.3 4.3-.2 6.3.2 5.4 0 10.9 2.1 16.1 3.8 9.8 9.9 17.8 20.4 23.1 2.1 1.1 4.4 1.7 6.8 2.4 3.8.9 7.3 0 10.4-2.2 6-4.4 11.1-9.5 15.6-15 2.4-2.7 4.3-5.7 5.1-9 .3-1.3 1.1-2.5 1.7-3.9 1.7 1.7 3.3 3.3 4.6 4.9 1.6 1.7.8 3.8-.3 5.4-2.1 3.2-4.1 6.3-6.6 9-3.9 4.3-8.1 8.2-13.6 10.9-9 4.4-18.2 4.6-27.9 1.7-7.1-2.1-12.5-6.2-17.7-10.4-6.2-5.1-8.4-11.8-10.3-18.6-1.7-6-2.2-12-2.2-18.2 0-.9 0-2.1-.2-3-.2-1.3-.9-2.1-3.2-1.6-.3 2.7-.6 5.5-.8 8.5-.6 8.2-1.3 16.4-1.9 24.6-.3 3.5-.5 6.9-.6 10.6-.3 6.5-2.7 12.5-6.5 17.8-2.8 3.9-6.8 4.9-11.2 2.8-1.3-.5-2.2-1.9-2.7-3.2-2.2-5.5-4.7-11.1-6.5-16.7-2.8-9.9-5.1-20.1-7.6-30.2-.6-2.7-1.3-5.4-1.9-7.9 0-.9-.4-1.6-1.1-3zm57.4-6.5c1.6-1.4 2.7-2.2 3.6-3.3 3.9-4.9 7.3-10.1 9.8-15.6 2.7-6.2 2.7-12.2-.9-18-.6-1.1-1.1-2.4-3-2.2-5.9 8.3-11 28.7-9.5 39.1z" stroke="#FFF" stroke-width=".765"/><path d="M-290.9 193.9c3.5-1.7 4.9-5.5 7.7-8.4.6.3 1.4.5 1.6.9 2.1 3.9 2.1 6.9-.3 9.9-.8.9-1.4 1.9-2.4 2.7-1.4 1.3-3 2.1-5.1 2.2-4.1.3-8.2-.6-12-2.1-2.2-.9-3.9-2.7-5.1-4.9-1.7-3.8-3.6-7.7-5.2-11.7-1.1-2.8-1.9-5.8-2.5-8.8-.9-5.5-2.8-10.7-3.9-16.3-.9-5.2-2.5-10.1-3.5-15.3-.9-5.1-2.4-9.9-3.6-14.8-.2-.9-1.1-1.1-2.2-.8-1.1 1.9-2.4 3.9-1.7 6.5-1.6 4.1-1.1 8.7-2.8 12.9-.2.5-.3.9-.3 1.4 0 3.2-.8 6.5-.8 9.6-.2 5.2-.3 10.4.2 15.6.2 1.4-.6 3.2-.3 4.6.8 3.3.6 6.8.9 10.1.3 2.4.3 4.7.3 7.1 0 2.4-1.6 3.8-3.9 3.2-2.5-.5-4.9-1.3-7.4-1.9-1.7-.5-2.5-1.7-2.8-3.3-.5-1.7-.6-3.6-1.1-5.4-1.4-5.4-2.8-10.9-3.5-16.4-.5-3.9-1.7-7.7-2.5-11.7-.3.2-.8.3-.9.5-.5 1.6-1.1 3.3-1.1 4.9.2 5.5-2.4 10.3-4.1 15.2-.9 2.8-3.3 4.7-6.5 5.1-5.5.5-10.9-.5-15.9-2.7-3-1.3-5.4-3.6-6.8-6.6-1.7-3.2-3.8-6.2-4.7-9.6-.3-.9-1.1-1.6-1.6-2.4-1.3 0-1.9.6-2.2 1.4-.9 3.3-2.2 6.5-2.7 9.8-.6 4.6-2.4 8.8-3.3 13.4-.3 1.9-1.4 3.9-2.4 5.5-1.4 2.2-3.3 3.8-6.3 3.5-2.4-.3-4.7-.5-6.9-.8-1.7-.3-3.2-1.1-4.3-2.5-2.5-3.5-3.9-7.4-5.4-11.5-1.1-3.3-1.4-6.6-1.7-9.9 0-.9-.3-1.7-1.3-1.9-.9-.2-1.6.5-2.1 1.3-.6 1.1-1.1 2.1-1.6 3.2-1.3 3-2.8 5.8-5.4 8.1-.5.5-.9.9-1.3 1.6-2.4 4.1-6.3 6-10.4 7.7-1.4.6-2.8 1.1-4.3 1.6-1.7.5-3.5 1.1-5.5.3-.9-.3-2.1 0-3 0-6.8-.3-12.6-2.5-17.2-7.7-2.7-3-4.6-6.2-6.2-9.8-1.7-4.3-2.5-8.7-3.5-13.3-.9-4.7-1.1-9.5-1.1-14.2 0-1.9 0-3.6.3-5.5.3-1.6.3-3.3.2-5.1-.2-2.4.2-4.7.8-6.9.6-2.1.8-4.3 1.3-6.5.6-3.3 2.2-6.5 3.5-9.5 1.3-3.3 3.2-6.5 4.6-9.6 1.4-3.3 3.9-5.1 7.4-5.4 3.8-.3 7.4-.3 11.2-.5.5 0 1.1 0 1.4.2 5.5 2.1 10.3 4.9 13.9 9.8 3.9 5.5 6 11.7 8.4 18 .3.8.3 1.7.3 2.5.3 2.4 0 4.6-2.4 5.7-2.4 1.3-4.7 1.6-7.3 0-1.1-.6-1.7-1.6-2.2-2.7-2.1-6.2-5.5-11.7-8.1-17.5-1.3-3-3.6-4.9-5.2-7.4-.5-.8-2.2-.8-2.8 0-1.1 1.4-2.4 3-3.2 4.6-2.5 5.1-5.1 9.9-6.2 15.6-.6 3-1.6 5.8-1.4 9 0 .6.2 1.4 0 2.1-1.3 3.8-.8 7.7-.6 11.7 0 3.5.2 6.8.3 10.3.2 4.9 1.1 9.8 2.8 14.4 2.1 5.7 4.6 9.9 8.2 13.1 1.1.9 2.5 1.7 3.9 2.4 1.6.8 3.3.6 4.9-.3 2.2-1.3 4.4-2.5 6.5-3.9 3.9-2.8 6.5-6.9 8.7-11.2 2.5-4.7 5.8-15 7.3-20.7.3-1.4.9-2.8 1.3-4.4.8-2.8 1.1-5.7 1.4-8.5.5-4.7.3-9.5.5-14.2 0-2.1.5-4.1.8-6 .8-5.8 1.4-11.7 3.5-17.4 1.6-4.1 4.1-7.4 7.4-10.1 3.3-2.7 7.6-2.8 11.7-2.4 2.1.2 4.1.6 6 .6 4.4 0 8.4 1.9 11.5 4.7 2.7 2.4 4.1 5.8 4.3 9.5.2 5.7.3 11.2.6 16.9.5 7.9.6 15.8 2.2 23.5 1.3 6.6 2.4 13.4 5.2 19.6 1.3 2.5 2.4 5.2 3.9 7.7.9 1.6 2.2 3.2 4.1 3.8 1.6-1.1 2.1-2.7 2.5-4.3 1.6-4.6 3-9.3 4.1-14.1.6-3.2 1.1-6.3 1.4-9.5.5-3.9.5-8.1 1.3-12 .3-1.4 0-3 0-4.6.3-4.6.5-9.2.9-13.7.2-2.2.6-4.3.6-6.5.2-2.1-.2-4.1-.2-6.2 0-2.1-.2-4.1 0-6.2.2-3 1.1-3.9 3.9-4.1 1.6-.2 3-.2 4.6 0 2.7.2 3.8.9 4.4 3.3 1.3 4.6 2.1 9.2 2.5 13.9.3 3.6.9 7.4 1.6 11.1 0 .5.3.9.8 1.3.3.2 1.1.3 1.3 0 .5-.5.8-1.1.9-1.7.6-2.8 1.3-5.5 2.1-8.4.3-1.3.5-2.7.9-3.9.6-1.9 2.1-3.3 2.4-5.5.2-1.9 1.6-3.8 2.4-5.5.2-.3.5-.5.8-.9 2.7.2 5.4-1.7 8.2-.8 3-.6 4.7 1.3 6 3.5.9 1.6 1.7 3.3 2.2 5.2 1.6 6.3 3.8 12.6 4.7 19.3.6 3.8 1.6 7.6 2.5 11.4.2.9.6 1.9.9 2.8.3.9.8 1.9.8 2.8.3 4.4 1.7 8.7 2.7 12.9 1.4 7.1 3.9 13.9 6.2 20.8 1.3 3.9 3 7.6 3.9 11.5.9 1.6 2.1 2.6 3.7 3zM-400.2 100c-.3-.2-.9-.6-1.6-.9-2.2-1.4-4.3-1.1-5.8.9-1.7 2.4-3.2 4.7-4.9 7.1-3.6 5.1-5.2 11.1-7.1 16.9-.9 2.5-1.7 5.4-1.6 7.9.2 4.6-.3 9 .2 13.6.3 3.8.8 7.7 1.3 11.5.5 4.1.9 8.1 1.6 12.2.3 2.1 1.1 3.9 1.7 5.8.3 1.1.3 2.8 1.7 2.8 1.7.2 1.6-1.9 2.2-3 .2-.2.2-.3.2-.5 1.7-6.2 2.5-12.6 4.9-18.6 0-1.9.8-3.6 1.6-5.2.6-1.3.8-3 1.1-4.4.3-2.1.5-4.1 1.1-6 .6-1.9.8-3.6.6-5.5-.5-4.3.6-8.5.9-12.6.5-4.7.5-9.5-.3-14.2-.5-2.7-.2-5.1 2.1-6.8 0-.1 0-.2.1-1zm147.5-15.8c2.4.6 4.6.3 6.6.2 9-.2 18-.5 27-.5 3.3 0 6.8.3 10.1.6 1.3.2 2.7.6 3.8 1.1 1.4.6 2.1 1.4 1.7 2.1-.5 1.1-1.6 1.3-2.5 1.3-1.9 0-3.6-.5-5.5-.5-5.7 0-11.2.2-16.9.2-1.9 0-3.8-.2-5.5-.2-1.7 0-3.3 0-5.1.2-3.8.3-7.4.6-11.1.8-.8 0-1.6.3-2.2.3-1.6 1.4-1.7 3-1.7 4.7.2 4.6.2 9.2.3 13.7 0 2.7.2 5.2.2 7.9-.2 2.7.3-.2.8 2.5.2 1.1.3 2.2 0 3.3-.2.8-.3 1.7 0 2.4 1.1 2.1.6 4.3.8 6.3.2 2.1 0 4.4.5 6.3.5 2.1-.2 3.9.2 5.8 1.4 8.5 1.1 17.4 3.5 25.7.2 3.6 1.4 7.1 2.5 10.4 1.4 4.4 4.3 8.2 7.3 11.7 1.3 1.4 3.2 2.5 4.9 3.5 1.4.8 3.2.5 4.1-.8 1.3-1.7 3.2-3 3.6-5.4.2-.9.9-1.7 1.4-2.5.3-.5 1.6-.3 1.9 0 .2.3.5.5.6.8.3 1.1.9 2.2.9 3.3.2 6.9-1.6 8.2-8.8 9.5-6.5-.6-12.8-1.4-18.5-4.6-7.1-4.1-12-9.9-14.8-17.4-1.1-2.8-2.1-5.8-2.4-9-.3-2.2-.6-4.6-1.4-6.8-.9-2.5-.9-5.2-1.1-7.7-.2-1.6-.8-3.3-.8-4.9.3-4.1-.8-8.1-.6-12.2.2-3.9-.3-7.9-.5-11.8-.2-1.9 0-3.9-.6-5.8-.3-.8-.2 3.9 0 3.2.3-3.2-.3-6.2-.3-9.3-.2-3.3-.2-6.6-.3-9.8-.1-3.2-.2-6.3-.2-9.3 0-.5 0-.9-.2-1.4-.2-.9-.8-1.4-1.7-1.6-.3 0-.6-.2-.9-.2-4.1.2-8.1-.2-12.2-.5-3.2-.3-6.5-.5-9.6-.8-3.3-.5-6.5-1.7-9.8-2.8-.3 0-.5-.5-.5-.8 0-.2.3-.6.5-.6 3.3-.5 6.8-.5 10.1 0 2.5.3 5.1 1.1 7.6.9 2.4-.2 4.7.3 7.1.2 2.5-.2 5.1-.2 7.6-.3 1.3 0 2.4-.9 2.4-2.2-.2-4.3 1.1-8.4 0-12.6-.3-1.1-.2-2.2 0-3.5.2-3.8.6-7.7-.3-11.5-.5-1.6-.3-3.3-.3-4.9 0-1.3.6-1.9 1.7-1.9 4.1.3 8.1 1.3 11.5 3.5 2.1 1.3 3 2.8 3.2 5.2.2 3 .6 5.8.9 8.8 0 .6 0 1.3-.2 1.9 0 .6-.3 1.4-.2 1.9 1.1 3.9.6 8.2 1.3 12.2-.2 1.1-.2 1.2.1 1.7z"/><path d="M-301.8 88c-2.5-1.4-4.4-3.2-5.5-5.5-.3-.6-.5-1.3-.8-1.9-3.2-5.1-4.4-10.9-5.8-16.6 0-.3.2-.6.3-1.3 1.7-.5 3.3-.3 5.1.6 3.3 1.7 4.6 4.9 5.8 7.9.8 1.9 1.3 3.8 1.7 5.8.8 3.6 1.4 7.1-.8 11z"/><path d="M-118.2 130.3c5.8-1.7 12.3.9 15.5 6 .9 1.6 2.1 3 3.2 4.7 4.7-.3 9.5-.6 14.5-1.1.5-1.7 1.1-3.2 1.4-4.6.9-5.2 3-9.9 5.5-14.5 4.4-8.1 11.4-18.5 22.6-14.5 5.8 2.1 10.7 13.4 9.3 19.1-1.6 6-8.2 24.3-27.3 22.9-1.4 11.7-3.2 20.7 4.1 30.5 2.2 3 5.2 5.2 8.5 7.1 2.8 1.6 5.8 2.1 9.3 1.6 6.3-.9 6.6-1.1 11.4-5.1 3.9-3.5 6.5-8.1 10.9-11.2.8-.6 1.4-1.3 2.4-1.6.6-.3 1.7-.2 2.2.2 1.9 1.3 2.2 2.7 1.3 4.6-10.1 19.9-30 22.1-45 12.2-12.2-8.2-14.8-18.3-16.4-31.9-.2-2.1-.3-4.1-.5-6.2-.2-.8-.3-1.7-.6-2.7-3.9-.2-7.6-.3-11.4-.5 0 .8-.2 1.1 0 1.4 6.9 15.8-11.8 66.5-33.6 56.2-5.7-2.7-10.9-6.2-12.6-12.5-.9-3.9-1.9-7.9-2.5-12-.6-4.7-.9 2.1-1.4-2.7-.2-1.1-.3-2.2-.6-3.9-1.3 1.4-2.1 2.2-2.8 3.2-2.2 2.2-4.6 4.6-6.9 6.8-1.7 1.7-3.6 1.7-5.7.6-1.6-.8-3-1.7-4.4-2.5.2-.6.2-.9.3-1.1 5.2-3.2 7.9-8.2 11.4-12.8 2.4-3.2 4.7-6.3 6.9-9.6.9-1.4 1.7-3 2.1-4.6.6-5.5 1.1-11.2 1.6-16.7.9-10.1 1.7-20.2 2.7-30.2 1.3-13.4 4.1-26.7 8.1-39.6 1.4-4.6 3.2-9 4.9-13.6.6-1.9 1.4-2.2 3.5-1.9 3.6.5 6.5 2.2 8.1 5.4 2.5 5.1 3.6 10.4 4.9 15.8 2.4 10.7.6 21.3-2.2 31.9-3.6 14.1-8.8 27.6-14.8 40.9-.6 1.3-1.1 2.7-1.9 3.8-2.5 3.5-2.8 7.3-2.8 11.1 0 8.4 0 16.6.6 24.9.5 6.6 1.6 1.7 2.7 8.2.3 2.4.9 4.7 2.7 6.6 16.3-.5 24.2-34.7 23.2-46.6-.3-2.8-1.1-5.5-1.7-8.2-.3-1.7-1.4-3-3-3.9-1.4-.8-2.7-1.7-3.9-2.8-2.8-1.5-4.5-3.6-3.8-6.6zm-12.9-12.3c.3-.8.8-1.6 1.1-2.4 1.6-5.2 3.3-10.3 4.7-15.5 2.1-7.4 3.5-15 3.5-22.7 0-1.6-.3-3.3-.5-4.9-.2-1.6 0-3.2-.9-4.9-3.5 10-9.3 40.3-7.9 50.4zm58.1 21.9c11.1 1.7 24.6-22.7 11.1-23.1-4.3 1.4-11.9 17.3-11.1 23.1z" stroke="#FFF" stroke-width=".587"/><path d="M70.2 139.2c1.7-1.4 3.3-2.8 4.9-4.3 5.4-4.6 7.4-6.2 14.1-9.2 2.2-.9 3.9-1.1 6 .9-6.8 9-13.9 11.7-20.4 20.7 3.2 5.5 6.2 10.7 9 15.9.8 1.4 1.4 2.8 1.7 4.4.5 2.2-.8 3.8-3 4.1-2.8.3-4.7-1.1-6.2-3.5-2.1-3.3-4.3-6.5-6.3-9.8-.5-.8-1.1-1.3-1.6-1.9-2.5-.3-3.6 1.4-5.1 2.7-4.3 3.9-8.5 8.2-13.7 10.9-3.6 1.9-7.4 3.3-11.4 4.6-3.3 1.1-6.8.3-9.9-.9-4.6-1.7-6.6-5.1-6.5-9.9.2-2.5.5-4.9.9-7.3 3.6-15.2 7.9-30 14.8-44.1 1.3-2.7 1.6-5.2.9-8.1-.9-3.8-1.4-7.6-1.4-11.5 0-7.7.5-15.5 2.4-23.1 1.3-4.7 3.2-8.8 6.3-12.6 3.9-4.7 9.3-5.8 14.8-5.4 3.6.3 6.5 3 8.1 6.3 2.1 4.1 2.5 8.5.8 12.8-1.7 4.6-3.6 9.2-5.8 13.6-3.2 6.5-6.5 12.9-9.9 19.3-2.4 4.4-2.2 8.7.6 12.9 4.4 6.6 8.7 13.3 13.1 19.9.8 1 1.7 1.6 2.8 2.6zm-23.4-14.1c-2.2.9-2.5 2.8-3 4.4-2.7 8.5-5.4 17.1-7.6 25.7-.9 3.3-.9 6.9-1.3 10.4-.2 1.4.3 2.8 1.9 3.5 2.5.2 4.3-1.4 6-2.8 5.8-4.6 11.2-9.8 16.1-15.3 3-3.3 3-3.8.8-7.3-3.5-5.5-7.1-10.9-10.6-16.4-.5-.6-1.5-1.4-2.3-2.2zm1.8-36.3c.3-.2.8-.2.9-.5 4.3-6.8 7.7-13.9 9.8-21.5 1.1-3.8-.3-6.8-2.8-9.5-6.7 5-11.4 23.8-7.9 31.5zm287.8-34.9c-6.9 1.1-13.9.6-20.8-.3-6.3-.8-12.6-1.6-18.9-1.9-11.4-.5-22.7-.5-33.9-.8-3.3 0-6.8-.2-10.1-.5-2.7-.2-3.6-1.3-3.5-3.6.3-2.8.9-5.5 1.1-8.4.2-3.3.3-6.8.2-10.3-.2-1.4-.6-3.3-1.7-3.9-3.2-1.9-6.5-3.6-11.2-2.2.2 9.2-2.1 17.8-3.2 26.8-10.7 1.4-20.7-3.5-32.1-.8 1.9.9 2.5 1.6 3.3 1.7 6.9 2.2 14.2 3.3 21.6 3.9 2.4.2 4.7.3 6.6 2.4-.6 9.3-1.4 18.8-2.2 28.3-.2 1.9-.6 3.8-1.1 5.5-3 11.2-7.6 21.9-12 32.5-3.9 9.3-8.2 18.5-14.4 26.7-1.6 2.2-3.2 4.4-6.5 5.8-5.1-3.6-7.6-8.4-9.2-13.7-1.3-4.4-1.9-8.8-2.7-13.4-.8-4.7-.9-9.3.9-13.9 1.4-3.5 3-6.9 4.3-10.6 3.5-9.5 6.8-18.9 9.9-28.6 1.3-3.8.5-7.6-1.1-11.1-1.1-2.5-3.2-4.1-6-5.1-3.8-1.3-7.4-.8-11.7-.2-1.3 2.1-2.8 4.3-3.9 6.5-5.1 9.5-6.5 19.9-6.8 30.3-.3 9.6-1.1 19.3 0 28.9 0 .6.3 1.1.2 1.7-.5 3.5-1.6 6.8-4.9 9.2-.5-.9-.9-1.4-.9-2.1-1.6-11.1-3.2-22.1-4.4-33.3-.5-4.6-.3-9.2-.3-13.6 0-2.8-.8-5.4-3.5-6.8-2.8-1.4-5.8-2.5-8.4 0-.5 8.7-.9 16.9-1.4 25.3-.5 9.3-2.5 18.3-6.2 27-3.2 7.4-6.3 14.7-9.3 22.1-2.4 5.8-6.5 10.4-11.4 14.2-.6.5-1.7.6-2.8.9-2.8-3.6-3.3-7.4-3.2-11.5.6-10.6 1.4-21.2 1.9-31.7.6-13.1.9-26.1 1.3-39.2.2-6.6-2.1-8.8-9-9.3h-2.4c-3.6 0-5.4.6-5.4 5.1 0 10.1-.3 20.1-.8 30.2-.3 9.8-1.1 19.7-1.3 29.5-.2 6.5-.6 12.8 1.3 19.3 3.5 11.4 16.6 15.9 27 9.5 3.3-2.1 5.5-4.7 7.7-7.7 5.7-7.6 7.4-16.6 11.4-24.8 1.1-2.5 1.6-5.2 3.8-7.3.6.6 1.1.8 1.1 1.1 1.1 8.1 2.2 16.1 3.2 24.2.6 4.7 1.4 9.3-.3 14.1-1.9 5.4-3.3 10.9-4.7 16.4-1.3 4.6-2.2 9.2-3.6 13.7-3.3 10.9-4.9 7.3-3.9 18.5.3 3.9 1.4 7.4 3.5 10.7.8 1.3 1.9 2.4 3.2 3.3 3.9 2.5 8.4 3.3 13.1 3.3 3 0 5.5-1.3 6.9-3.8 1.4-2.7 2.7-5.5 3.5-8.4 2.2-8.2 2.4-16.6 2.1-24.9-.6-16.3-1.9-18-4.7-34.1-1.3-6.8.3-12.6 3.8-18.5.6-1.1 1.7-1.9 2.5-2.7.6.2.8.3.9.3.6.8 1.3 1.4 1.9 2.2 4.1 5.4 8.7 10.1 15.6 12.6 7.1 2.5 14.4 1.9 19.6-3.3 2.4-2.5 4.3-5.4 6.3-8.2 4.7-7.1 7.6-15 11.1-22.6.3-.9 1.1-1.6 2.2-3 .6 2.5.9 4.1 1.3 5.8 2.1 8.8 3.6 17.8 6.6 26.5 3.8 10.6 9.6 18.8 20.4 23.8 8.1 3.8 15.8 4.6 24 1.4 1.9-.8 3.8-2.1 5.4-3.5 2.8-2.8 2.4-5.8-1.6-9.3-.6.8-1.3 1.9-2.1 2.7-3.2 3-6.9 4.9-11.2 6.3-5.1 1.7-9 .6-12.2-3.3-.8-.9-1.6-1.7-2.1-2.8-4.4-7.9-7.6-16.3-9.2-25.1-.6-3.5-1.4-7.1-1.9-10.6-1.1-7.3-2.2-14.7-2.8-21.9-.8-9.8-1.1-19.6-1.3-29.5-.2-8.7.8-17.4 2.1-26.5 2.2-.2 4.1-.5 6-.5 9.5.3 18.9.5 28.6.9 12.2.6 24.2 1.6 36.3 2.4 3.6.2 7.1.5 10.7.5 4.6-.2 8.7-1.6 13.1-4.1-3-1.1-5.1-1.1-7.3-.8zM159.3 219.5c-.5 3.6-.8 7.4-3.2 10.6-2.7-.2-3.9-1.7-4.6-3.5-1.1-2.8-2.4-5.7-2.7-8.7-.8-9.5.3-4.4 2.5-13.6.8-3 1.4-5.8 2.2-8.8.6-2.2 1.3-4.3 3.2-6.8.8 1.6 1.7 2.5 1.7 3.3 1.2 14.3 2.8 13.6.9 27.5zm23.6-122.2s-2.5-33.9 7.7-28.1c10.3 5.9-7.7 28.1-7.7 28.1z"/></g></g><g transform="translate(1176 262)"><mask id="d" fill="#fff"><use xlink:href="#c"/></mask><g stroke-width="2.163" stroke="#FFF" fill="#FFF" mask="url(#d)"><path d="M-14.367 28.837v.632c1.217.506 2.312.758 3.286 1.39.73.38 1.217 1.138 1.704 1.77.243.253.121.759.121 1.138-.243 1.517-.608 3.16-.73 4.677-.243 2.402-.487 4.677-.487 7.079 0 1.39.365 2.78.487 4.298l.73 7.205c.244 2.402.609 4.804.974 7.205.365 2.276.608 4.551.973 6.826.122 1.012.365 2.023.609 2.908.365 1.896.73 3.918 1.095 5.815.608 2.78 1.095 5.562 1.825 8.343.609 2.148 1.339 4.297 2.07 6.32.12.506.486 1.011.73 1.517C.357 95.2.48 93.937.844 92.8c.486-1.39 1.095-2.781 1.46-4.298.487-2.276 1.704-4.298 1.704-6.826 0-1.896.73-3.793 1.217-5.689.608-2.275 1.095-4.55 1.338-6.952.122-1.138.609-2.275.852-3.413s.365-2.276.487-3.413c.487-4.172.852-8.343 1.338-12.641.244-1.896.73-3.666.974-5.436.243-1.896.122-3.918.243-5.814v-2.402c0-.885.487-3.034.73-3.919.487-1.264 1.582-1.77 2.556-1.77 2.069-.126 4.138 0 6.206.127 1.826.126 2.556 1.011 2.678 3.034.121 2.654-.244 5.309-.73 7.837-.122 1.011-.244 2.149-.244 3.287 0 1.643.243 3.286.122 4.93-.122 2.654.243 5.309.973 7.963.609 2.402 1.339 4.93 1.947 7.332.487 2.149.73 4.424 1.339 6.573.608 2.528 1.704 5.057 2.19 7.585.73 3.792 2.434 7.079 4.503 10.239.852 1.264 1.46 2.654 2.19 3.918.609 1.138 1.339 2.023 2.434 2.655 1.826 1.011 3.651 1.896 5.476 2.781 1.217.632 2.07 0 2.678-1.011a242.858 242.858 0 0 0 6.084-9.354c.609-.885.852-2.023 1.217-3.034.243-.632.609-1.39.974-2.023.73-1.643 1.582-3.286 2.312-5.056.608-1.517.973-3.16 1.46-4.804.73-2.78 1.339-5.435 2.069-8.216.487-2.15.243-4.172-.122-6.32-.608-3.16-1.338-6.321-1.947-9.608-.608-3.033-1.095-6.194-1.582-9.227-.365-1.897-.487-3.793-.73-5.815-.73-4.93-1.46-9.734-1.947-14.664-.609-5.309-1.339-10.618-1.095-15.927.121-2.781 0-5.562.121-8.343 0-1.517.244-3.16.609-4.677.73-3.287 1.703-6.447 2.434-9.734.365-1.517 1.095-2.022 2.555-2.401 3.894-1.012 6.693.505 9.127 3.539.122.126.243.38.365.506 2.434 1.137 3.164 3.666 4.503 5.814 1.095 1.77 1.217 3.793 1.703 5.689.487 1.896.852 3.918.974 5.815.122 4.045-.122 8.216-.122 12.261 0 1.644 0 3.16-.121 4.804l-.366 5.309c-.365 3.54-.608 7.205-.973 10.745-.365 3.033-.852 5.94-1.217 8.975-.365 3.033-.852 6.067-1.095 9.227-.244 3.16-.609 6.32-1.217 9.355a3.197 3.197 0 0 0 0 1.517c.487 2.528 1.095 4.93 1.704 7.458.365 1.896.851 3.666 1.338 5.562.244 1.137.609 2.149.974 3.286.73 2.276 1.46 4.677 2.19 6.953.244.632.487 1.39.852 2.022 1.46 3.413 3.164 6.7 5.233 9.734a24.644 24.644 0 0 0 2.069 2.907c.486.632.486 1.264-.122 1.77-.73.632-.73 1.138-.244 1.77.487.632.244 1.39-.608 1.643-.122 0-.365 0-.487.126-1.46 1.264-2.555.253-3.772-.632-.609-.505-1.339-1.011-1.947-1.517-1.46-1.264-2.556-2.78-3.408-4.55a60.835 60.835 0 0 0-2.068-3.919c-.73-1.39-1.582-2.781-2.313-4.172-.608-1.264-.973-2.528-1.46-3.792-.243-.632-.73-1.137-.973-1.77-.366-1.137-.487-2.275-1.217-3.286-.122-.253-.122-.632-.122-.885-.122-1.138-.365-2.275-.608-3.413h-.366c-.121.253-.121.506-.243.758-.365 1.517-1.095 3.034-1.947 4.298-.974 1.517-1.825 3.16-2.799 4.804-.73 1.39-1.46 2.78-2.312 4.045-1.217 1.77-2.434 3.54-3.773 5.31-.973 1.39-2.068 2.654-3.042 4.044-.243.253-.243.632-.365.885-.365 1.643-1.339 2.528-2.799 3.034-3.042 1.011-6.206 1.137-9.37.885-4.26-.38-7.302-2.528-9.614-6.068a162.709 162.709 0 0 1-4.867-7.71c-.73-1.265-1.217-2.782-1.826-4.172-.73-2.023-1.582-4.045-2.069-6.068-.851-3.413-2.312-6.573-2.555-10.113-.122-1.77-.609-3.413-.974-5.056-.121-.38 0-.885-.121-1.264 0-.506-.122-1.138-.244-1.643h-.243c-.73 2.907-1.217 5.814-2.069 8.722-.852 2.78-1.582 5.688-2.069 8.596-.486 2.907-1.095 5.814-1.582 8.722a38.783 38.783 0 0 1-3.894 11.124c-.973 1.77-2.068 3.413-4.137 3.792-.244.126-.609.253-.852.126-1.46-.379-2.92-.505-4.138-1.516l-1.46-1.138c-1.339-1.011-1.704-2.655-2.312-4.172-.974-2.528-1.704-5.056-2.556-7.71-.73-2.276-1.46-4.551-1.947-6.827-.608-2.78-.973-5.688-1.582-8.469-.243-1.517-.608-2.907-.851-4.298-.366-2.149-.609-4.298-.974-6.32-.122-.759-.365-1.39-.365-2.15-.243-2.654-.365-5.308-.487-7.837 0-.126-.122-.252-.365-.505a43.078 43.078 0 0 1-1.217 3.666 450.714 450.714 0 0 0-3.894 11.882c-1.704 5.183-4.016 10.113-6.206 15.17-1.582 3.665-3.164 7.457-4.99 10.997-.851 1.77-2.19 3.286-3.285 4.93l-.122.126c-1.095 2.149-2.799 3.54-4.38 5.183-1.218 1.264-2.678 1.77-4.138 2.528-1.582.632-3.164 1.138-4.746 1.643-.852.253-1.826.253-2.678.127-2.92-.253-5.232-1.644-6.693-4.172-.486-.758-1.095-1.517-1.703-2.402-.365.506-.609 1.012-.852 1.39-.365.886-.73 1.644-1.095 2.529-.609 1.39-1.096 2.907-1.704 4.298-.73 1.77-2.069 3.034-3.894 3.54-.852.252-1.826.505-2.556 1.01-1.825 1.138-3.407.506-4.867-.505-2.678-1.896-4.746-4.298-6.207-7.332-.852-1.77-1.825-3.413-2.555-5.182-.73-1.644-1.217-3.54-1.704-5.31-.73-2.528-1.46-4.93-1.825-7.458a32.847 32.847 0 0 1-.73-6.952c-.122-3.16-.366-6.32-.609-9.48a25.344 25.344 0 0 1 0-4.299c.243-3.16-.122-6.447-.243-9.607-.122-2.402 0-4.677 0-7.079 0-1.517 0-3.033.121-4.55.122-2.529.365-5.183.609-7.711v-1.39a8.927 8.927 0 0 0-1.947 3.16 419.38 419.38 0 0 0-4.138 11.25c-1.825 5.056-3.164 10.239-4.259 15.422-.487 2.654-1.46 5.182-2.19 7.837-.852 3.413-1.582 6.952-2.434 10.365-.487 2.023-1.217 4.046-1.826 6.068-.486 1.77-.851 3.54-1.46 5.436-.122.505-.365.884-.73 1.264-.609.505-1.217 1.137-1.947 1.39-.974.253-1.947.253-3.042.127-1.096 0-2.313-.253-3.408-.38-.608-.126-1.095-.505-1.217-1.264-.487-2.149-.973-4.298-1.338-6.573-.365-1.643-.487-3.413-.73-5.183 0-.126-.122-.253 0-.379.365-1.77-.487-3.287-.609-4.93-.122-1.138-.122-2.149-.243-3.286-.244-3.287-.487-6.447-.73-9.734-.122-1.517 0-2.907-.122-4.424-.122-2.655-.122-5.183-.365-7.838-.244-4.045-.487-7.963-.974-12.008-.365-3.413-.973-6.826-1.46-10.24 0-.126-.122-.252-.243-.758-.366.632-.73 1.011-.852 1.517a486.434 486.434 0 0 0-5.355 11.503c-1.095 2.655-2.069 5.436-3.164 8.09 0 .127 0 .38-.121.506-1.217 1.264-1.096 3.034-1.704 4.677-.609 1.517-.73 3.287-1.095 4.93-.609 2.781-1.339 5.436-1.947 8.217-.487 2.654-.974 5.182-1.217 7.837-.365 4.045-.487 7.964-.609 12.009 0 1.39.244 2.907.365 4.298.122 1.264.122 2.528.244 3.792.243 3.034.486 5.941.851 8.975.122 1.138-.243 1.77-1.338 2.022-2.069.506-4.016.632-6.085-.379-.243-.126-.608-.253-.852-.38-1.582-.378-1.947-1.516-1.947-2.906-.121-3.414-.365-6.7-.73-10.113-.121-2.15-.487-4.172-.608-6.32-.365-4.172-.852-8.217-1.217-12.389-.244-3.792-.365-7.71-.609-11.503-.243-5.056-.608-10.239-.73-15.295-.121-4.045 0-8.09 0-12.009 0-3.413.122-6.826.244-10.113v-1.01c.121-1.391 0-2.53-1.217-3.667 1.582-.253 3.042-.632 4.259.38.122.126.487 0 .852 0 1.582.126 2.92.758 4.016 1.77.608.505.73 1.263.73 2.022-.122 5.056-.122 10.112-.122 15.169 0 2.907.122 5.814.243 8.595.122 3.16.366 6.194.609 9.355 0 .758.243 1.643.608 2.401.609-2.528 1.217-5.056 1.704-7.584.608-2.781 1.339-5.562 2.434-8.217.852-2.275 1.825-4.424 2.799-6.573.852-1.896 1.825-3.666 2.677-5.562a72.37 72.37 0 0 0 1.095-2.907c.244-.38.609-.759.852-1.138.243-.38.609-.632.243-1.138v-.379c1.096-.885 1.096-2.402 1.948-3.413.486-.505.851-1.011 1.703-1.137.609 0 1.339-.253 1.947-.506 1.46-.506 2.8-.253 4.138.253.73.253 1.46.379 1.947.885.973.632 1.582 1.516 2.069 2.654 1.46 3.413 2.92 6.826 3.285 10.618.365 3.793.609 7.711 1.096 11.504.365 3.286.73 6.573 1.216 9.86.487 3.918 1.217 7.837 1.704 11.755.244 2.023.365 4.046.609 6.447.608-.758.73-1.137.365-1.517.243-.758.365-1.264.486-1.77.122-.252.122-.505.244-.758.122-.758.365-1.643.487-2.402.121-.758-.122-1.516.608-2.022.122-.126.122-.253.243-.506.366-2.78 1.46-5.435 1.826-8.216.122-1.138.608-2.276.973-3.413.365-1.138.73-2.276.974-3.413.608-2.908 1.704-5.689 2.92-8.343.487-1.012.852-2.15 1.096-3.16.486-2.402 1.217-4.804 2.434-6.953 1.095-1.896 1.947-3.792 3.164-5.562.73-1.138 1.825-2.149 2.798-3.16.244-.253.487-.38.73-.38.61-.126 1.34-.126 2.07-.252 2.068-.253 4.015.253 5.597 1.77.487.505 1.217.884 1.826 1.39.243.253.608.632.73.885.973 2.402.852 4.803.486 7.332-.608 4.045-.608 8.09-.73 12.135-.121 4.93-.121 9.986-.121 14.916 0 3.287.486 6.447.851 9.733.244 2.023.244 4.172.487 6.194.244 1.897.487 3.793.974 5.562.608 2.781 1.217 5.562 2.069 8.343.486 1.517 1.338 2.908 2.068 4.425.365.632.609 1.264.852 1.896.73 2.022 2.19 3.034 3.894 3.918.73.38 1.217-.126 1.46-.758.609-1.643 1.34-3.16 1.826-4.803.73-2.023 1.339-4.172 2.069-6.195.73-2.148 1.582-4.297 1.947-6.573.243-1.517.487-2.907.852-4.424 0-.126.121-.38.121-.506 1.217-1.264 1.096-3.033 1.46-4.55.61-2.781 1.096-5.689 1.583-8.47.973-5.435 2.799-10.618 4.259-16.054.973-3.665 2.677-6.952 4.38-10.239 1.34-2.654 2.678-5.182 4.747-7.331 1.095-1.138 2.19-2.402 3.285-3.54.852-.885 1.704-1.77 2.556-2.528 1.095-1.138 2.677-1.39 4.137-1.77 2.19-.505 4.503-.758 6.693-1.137 1.948-.38 4.016-.759 5.963-1.012 1.096-.126 2.313-.126 3.53-.126.973 0 1.947-.126 2.92-.253-.487.759.122.885.73.885zm79.1 2.402c.243-1.77.365-3.54.73-5.057.608-2.275.487-4.677.73-6.952 0-.632.244-1.39.365-2.023.244-3.16.365-6.194.487-9.354 0-.758 0-1.517-.122-2.275 0-.632-.121-1.39-.121-2.023.121-1.39.365-2.78.365-4.045 0-1.643-.365-3.16-.609-4.803-.365-2.781-1.46-5.183-2.799-7.458-.121-.253-.486-.38-.73-.506-.121.253-.365.506-.487.885-.243 3.54-.486 6.952-.608 10.492-.122 2.149.122 4.424 0 6.573-.122 2.022-.122 3.919.243 5.815.487 3.034.73 6.067.974 8.975.122 1.643.365 3.16.608 4.803.244 2.276.365 4.551.609 6.826.122-.126.243-.126.365.127z"/><path d="M12.405 5.199c.73-.127 1.339-.38 1.947-.506.73-.126 1.096.126 1.34.885.12.379.242.758.608 1.011 1.947 1.643 1.703 3.54.486 5.31a2.9 2.9 0 0 1-.852.884c-.973 1.011-1.46 1.011-2.798.506-.974-.506-1.826-1.012-2.313-2.023-.486-1.011-.365-2.022-.121-3.16.243-1.011.73-1.643 1.46-2.275.122 0 .122-.38.243-.632z"/></g></g><g transform="translate(-28 -21)"><mask id="f" fill="#fff"><use xlink:href="#e"/></mask><g fill="#FFF" mask="url(#f)"><g stroke="#FFF" stroke-width="1.853"><path d="M611.4 311.3c-1.1 1.7-2.2 3.3-3.2 5.2-5.4 10.6-10.9 21.2-14.2 32.7-3 10.7-5.7 21.5-8.1 32.4-.9 3.9-.8 8.2-.9 12.3-.2 4.1 0 8.2 0 12.5 0 2.2-1.3 3.3-3.3 2.7-1.9-.8-3.8-2.1-5.5-3.3-3.3-2.2-5.1-5.1-4.9-9.5.3-10.3.2-20.7.3-30.9v-7.6c-1.1 1.4-1.7 2.1-2.1 2.8-6 12.9-12 25.9-17.8 38.8-1.7 3.8-3.2 7.6-4.9 11.4-1.3 3-2.1 3.6-5.2 3.6-1.3 0-2.7-.2-3.6-.6-6.9-4.3-13.3-8.8-15.2-18-2.4-10.7-3.3-21.3-3.5-32.2 0-1.6-.2-3-.9-4.7-.6 1.6-1.3 3.2-1.9 4.6-3.3 6.9-6.5 14.1-9.9 21-2.7 5.4-6.6 9.6-11.7 12.6-3.5 2.1-7.1 3.6-11.1 2.5-6.9-2.1-12.9-5.8-14.5-13.7-.8-3.8-1.4-7.6-1.4-11.4-.2-6.9 0-14.1.2-21 .2-7.6.6-15.3.9-22.9 0-.9-.2-1.9-.2-3.3-9.5-.3-18.6 1.3-28.1.9 2.1 6.8 3.6 13.4 3.3 20.1-.2 6.3-.6 12.8-1.3 19.1-.8 9.8-2.4 19.6-5.2 29.1-.9 3.3-2.2 6.6-3.8 9.8-2.2 4.4-6.5 5.5-11.1 3.8-9.5-3.5-13.4-11.5-16.9-20.2-.9-2.5-1.9-5.2-3.3-8.5-3.5 8.4-6.5 15.8-9.5 23.2-1.3 3-2.5 6.2-3.9 9.2-1.7 3.5-4.1 4.6-7.7 3.2-6.2-2.4-11.1-6.2-12.5-13.4-1.9-11.1-3.3-22.1-2.7-33.2.8-15.5 1.7-31.1 2.7-46.4 6.9-3.2 14.1.8 14.1 8.1 0 9.2-.6 18.5-1.1 27.6-.6 11.7-1.6 23.2-.2 34.7 0 .6.2 1.1.5 2.8 8.5-16.7 13.3-33.3 13.7-51.6 2.2-.3 4.1-.8 6-.6 5.4.3 6.3.2 6.8 6.8.8 11.5 3.6 22.6 6 33.8 1.3 6.2 4.1 12 7.4 17.4.2.3.8.5 1.6 1.1.9-2.1 2.1-3.9 2.7-6 2.7-9.5 5.1-18.9 5.8-28.9.6-8.7 1.3-17.4 2.1-26.1.6-6.5-1.3-12.3-3.6-17.8.9-1.9 2.5-1.6 3.8-1.6 7.9.6 15.8-.3 23.7-1.1 4.4-.5 9-.8 13.4-.8 2.2 0 4.3.3 6.5.9 3.3.9 3.6 1.4 3.6 5.1-.2 8.7-.5 17.5-.6 26.2-.3 8.7-.9 17.5-.9 26.2 0 4.1.9 8.2 1.7 12.2.2 1.1 1.3 2.1 1.9 3 5.5-1.4 9.6-4.6 12.5-9.2 6.5-10.3 12.5-21 16.3-32.7 1.7-5.4 3.5-10.9 5.2-16.3 1.6-5.4 1.9-17.8.5-23.8-11.5.5-23.1 3-34.6-.5 5.5-2.5 11.5-2.4 17.2-3.2 5.7-.8 11.4-1.6 17.5-2.4v-4.9c.3-11.1.3-21.9.9-33 .2-3.9 1.6-7.7 2.7-11.5.8-2.5 1.7-2.8 4.3-2.4 2.8.5 4.7 2.2 5.4 5.2 1.6 7.6 1.4 15.2 1.1 22.9-.3 5.2-.6 10.4-.8 15.8 0 2.1.3 4.1.5 6H543c1.9 0 3.2-.9 3.9-2.7 3.2.8 6.2 1.3 9.2 2.2 1.1.3 1.9 1.4 3 2.2-1.4 2.2-3.3 2.5-5.2 2.7-4.6.5-9.3.6-13.9 1.1-2.4.2-4.6.5-7.1.6-.2 1.4-.3 2.7-.3 3.9l.9 40.1c.3 9 .3 18.2.9 27.2.5 6.3 1.7 12.6 2.7 18.8.3 1.6.9 3 1.6 5.2.9-1.4 1.6-2.2 2.2-3 8.1-13.7 16.3-27.5 23.1-42 3-6.6 5.4-13.6 7.9-20.4.5-1.1.5-2.5.5-3.8-.2-10.1.8-20.1 1.6-30 .8-9.6.6-19.4 1.3-29.1.6-7.7 1.9-15.5 2.8-23.2.2-1.1.8-2.1 1.3-3.2 1.9-3.9 5.8-4.9 9.2-2.2 2.4 1.7 3.6 4.3 4.4 7.1 1.4 6 1.7 12.2 1.6 18.5-.3 11.5-2.7 22.7-6 33.6-1.9 6.3-1.9 12.9-2.4 19.4-.3 4.4-.3 8.8-.3 13.4 0 .9.3 1.7.8 3.6 1.9-4.1 3.5-7.4 5.1-10.6 3.9-8.1 7.9-16.1 12-24.2 1.1-2.1 2.4-4.1 3.8-6 3-3.9 8.4-3.5 10.9.8 1.3 2.2 2.2 4.6 3 6.9 3.5 10.1 5.4 20.5 6.2 31.3.8 11.5 1.9 23.2 2.8 34.7.2 2.2.6 4.4 1.3 7.3.6-1.3 1.1-1.9 1.4-2.7 4.4-14.8 10.7-28.9 17.8-42.5 1.6-3 2.7-6.5 3.5-9.8 2.1-8.1 5.2-15.6 10.4-22.3 1.3-1.6 2.4-3.3 3.5-5.1.9-1.4 1.7-3 3.8-3.2.6-.2 1.4-.8 1.7-1.3 1.3-3 3.8-2.8 6-2.5 11.2 2.2 22.1 5.4 28.7 16.4.5.8 1.1 1.6 1.6 2.4.8 1.3 1.9 1.6 3.2 1.1 4.9-1.6 9.8-3 14.4-5.2 2.7-1.3 4.9-3.8 8.1-6.5.6.2 2.2.3 3.9.6 4.3 1.1 6.8 4.4 6.8 9 .3 17.7.8 35.4 1.3 53.1.2 3.3.6 6.5 1.9 9.9.5-.8.9-1.4 1.3-2.2 4.6-11.5 8.8-23.2 11.8-35.2 1.6-6.5 3.9-12.8 5.5-19.3 1.4-5.7 2.2-11.5 3.5-17.2.2-.6.2-1.3.3-1.9 2.4-.5 4.4-.3 6.5.5 2.2.8 3.6 2.4 3.8 4.9.2 1.7.5 3.5.3 5.2-.6 9.2.5 18.2 1.1 27.2.5 8.2.5 16.6 1.1 24.8.3 4.9.8 9.8 3.5 14.2 1.7 2.8 2.8 3.2 5.7 1.7 2.5-1.3 4.7-3 6.2-5.7 1.3-2.4 2.5-4.7 3.3-7.4 3.2-10.6 6.2-21.3 9.2-32.1.6-2.1.9-4.1 1.1-6.2.6-9.9 1.1-20.1 1.7-30.2-1.1-.2-1.9-.6-2.8-.6-7.7.3-15.5.8-23.2 1.3-3.6.2-6.9-.8-11.1-2.7 1.6-.6 2.5-1.1 3.5-1.1 6.8-.6 13.6-1.1 20.4-1.7 4.3-.3 8.5-.8 13.3-1.3.9-13.9-.3-27.5.6-41.1 5.4 0 9 2.1 10.1 6.6.9 4.1 1.1 8.5 1.4 12.8.3 6 .3 12.2.6 18.2 0 .6.3 1.3.5 2.1 1.3.2 2.4.3 3.6.3 9.6.5 19.3.8 28.9 1.3 1.6 0 3 .6 4.4 1.1.6.2.9.9 1.6 1.9-2.8 2.1-5.8 1.7-8.7 1.7-8.4-.2-16.7-.3-25.1-.5-1.6 0-3 .3-4.7.5-.2 1.7-.6 3-.6 4.4-.3 14.7-1.1 29.4-.9 43.9.2 14.2 2.2 28.3 7.4 41.5 2.2 5.4 5.2 10.1 9.3 14.1 3 2.8 6.3 3.6 10.3 2.5 6.5-1.7 11.5-5.4 15.5-10.7.8-1.1 1.7-2.2 2.8-3.8.6 1.3 1.3 2.1 1.3 2.8.9 10.3-4.7 18.6-15.2 19.4-6.5.5-12.3-1.4-17.5-5.4-11.7-8.7-19.7-20.1-22.7-34.9-1.1-5.5-2.4-11.2-3.6-17.2-.5 1.1-.9 2.1-1.3 3.2-1.6 5.2-3 10.4-4.7 15.5-.6 1.7-1.4 3.5-2.4 5.2-4.1 7.4-12.5 9.5-19.6 5.1-5.4-3.3-9.8-7.4-11.7-13.6-.8-2.4-1.3-4.9-1.6-7.4-.5-4.6-.8-9.2-1.3-13.7-.2-2.1-.5-4.1-1.4-6.2-.2.8-.3 1.6-.5 2.4-1.3 6-2.4 12.2-4.1 18.2-1.9 7.1-4.3 13.9-6.6 20.8-.8 2.2-1.7 4.4-3 6.5-1.9 3-4.4 3.8-7.3 2.1-5.8-3.6-11.7-7.6-13.1-15.2-.9-4.9-2.1-9.6-2.2-14.5-.6-13.4-.6-26.7-.9-40.1 0-.8 0-1.6-.2-3-3.2.9-6 1.9-8.8 2.7-3 .8-6 1.4-9.5 2.2 5.1 9.3 2.8 19.4 4.4 28.9 1.9 11.2-1.4 20.8-7.1 30.3-4.7 7.9-11.1 13.3-18.9 16.9-5.1 2.2-10.3 3.9-15.8 2.1-.8-.3-1.4-.5-2.2-.9-8.2-4.9-15.5-10.7-18.6-20.4-2.1-6.3-3.5-12.8-5.2-19.4-2.4 2.8-3.6 6.5-4.9 10.1-1.9 5.7-3.5 11.5-5.2 17.4-.3.9-.5 1.9-.6 2.8-1.9 5.7-5.8 7.1-10.9 4.3-5.2-2.8-8.2-7.1-8.8-13.1-.8-6.8-1.6-13.6-2.2-20.4-1.1-12-1.9-24.2-3-36.2-.5-4.7-1.4-9.3-2.8-13.9-.9-.8-1.4-.8-1.7-.9zm-24.1-52.6v24.6c1.7-8.4 1.9-18.9 0-24.6z"/><path d="M457 286c4.6-1.6 8.4-1.6 12.5 1.4-1.1.9-1.7 1.9-2.5 1.9-3.5.2-6.5-1.4-10-3.3z"/></g><path d="M78.8 151c-.5 1.3-.6 1.7-.8 2.2-.9 11.4-1.6 22.7-2.7 34.3-.8 8.2-2.2 16.4-4.7 24.5-1.3 4.3-3.8 5.2-8.7 4.4-3.8-.6-5.5-2.4-6.9-5.4-3.6-8.2-6.3-16.4-8.5-24.9-2.5-10.3-4.1-20.7-5.5-31.1-1.1-8.4-2.5-16.4-4.3-24.3-1.7-8.4-3.9-16.6-6-24.9-.3-1.4-1.1-2.7-1.7-4.1 6.2-2.5 11.2-1.1 13.1 4.1 2.4 6.3 4.3 12.8 6 19.3 1.7 6.8 3.2 13.6 4.4 20.4 1.7 9.3 2.8 18.6 4.6 27.9.9 5.5 2.7 10.9 4.1 16.3.2.6.8 1.3 1.4 2.1 3.8-24.2 3.2-48.5 7.4-72.8 2.8-.5 5.7-1.3 8.5-1.6 2.7-.3 3.5.3 4.3 2.5 2.5 7.6 5.2 15.2 7.3 22.9 2.1 7.7 3.2 15.8 5.1 23.7 2.2 9.5 4.9 18.9 7.3 28.4.3.9.5 2.1 2.4 2.1 1.3-9.5 1.7-18.9 1.9-28.3.2-9.5 2.2-18.9 1.1-28.9 2.5-.8 5.4-1.9 8.2-2.5 1.6-.5 3 .2 3.9 1.6.6.9 1.6 1.9 2.8 3.5.5-1.4.8-2.1.8-2.7.8-5.4 1.4-10.7 2.4-16.1 1.4-7.7 5.1-14.7 8.5-22.1 4.6-.2 9.3-.6 14.1-.3 6.6.5 10.1 4.6 12.6 9.6 3 6.6.6 12.8-2.1 18.6-1.7 3.8-4.1 7.3-6.8 10.6-3.9 5.2-9 9.2-17.2 9.8-.2 2.2-.3 4.3-.2 6.3.2 5.4 0 10.9 2.1 16.1 3.8 9.8 9.9 17.8 20.4 23.1 2.1 1.1 4.4 1.7 6.8 2.4 3.8.9 7.3 0 10.4-2.2 6-4.4 11.1-9.5 15.6-15 2.4-2.7 4.3-5.7 5.1-9 .3-1.3 1.1-2.5 1.7-3.9 1.7 1.7 3.3 3.3 4.6 4.9 1.6 1.7.8 3.8-.3 5.4-2.1 3.2-4.1 6.3-6.6 9-3.9 4.3-8.1 8.2-13.6 10.9-9 4.4-18.2 4.6-27.9 1.7-7.1-2.1-12.5-6.2-17.7-10.4-6.2-5.1-8.4-11.8-10.3-18.6-1.7-6-2.2-12-2.2-18.2 0-.9 0-2.1-.2-3-.2-1.3-.9-2.1-3.2-1.6-.3 2.7-.6 5.5-.8 8.5-.6 8.2-1.3 16.4-1.9 24.6-.3 3.5-.5 6.9-.6 10.6-.3 6.5-2.7 12.5-6.5 17.8-2.8 3.9-6.8 4.9-11.2 2.8-1.3-.5-2.2-1.9-2.7-3.2-2.2-5.5-4.7-11.1-6.5-16.7-2.8-9.9-5.1-20.1-7.6-30.2-.6-2.7-1.3-5.4-1.9-7.9 0-.9-.4-1.6-1.1-3zm57.4-6.5c1.6-1.4 2.7-2.2 3.6-3.3 3.9-4.9 7.3-10.1 9.8-15.6 2.7-6.2 2.7-12.2-.9-18-.6-1.1-1.1-2.4-3-2.2-5.9 8.3-11 28.7-9.5 39.1z" stroke="#FFF" stroke-width=".765"/><path d="M443.1 193.9c3.5-1.7 4.9-5.5 7.7-8.4.6.3 1.4.5 1.6.9 2.1 3.9 2.1 6.9-.3 9.9-.8.9-1.4 1.9-2.4 2.7-1.4 1.3-3 2.1-5.1 2.2-4.1.3-8.2-.6-12-2.1-2.2-.9-3.9-2.7-5.1-4.9-1.7-3.8-3.6-7.7-5.2-11.7-1.1-2.8-1.9-5.8-2.5-8.8-.9-5.5-2.8-10.7-3.9-16.3-.9-5.2-2.5-10.1-3.5-15.3-.9-5.1-2.4-9.9-3.6-14.8-.2-.9-1.1-1.1-2.2-.8-1.1 1.9-2.4 3.9-1.7 6.5-1.6 4.1-1.1 8.7-2.8 12.9-.2.5-.3.9-.3 1.4 0 3.2-.8 6.5-.8 9.6-.2 5.2-.3 10.4.2 15.6.2 1.4-.6 3.2-.3 4.6.8 3.3.6 6.8.9 10.1.3 2.4.3 4.7.3 7.1 0 2.4-1.6 3.8-3.9 3.2-2.5-.5-4.9-1.3-7.4-1.9-1.7-.5-2.5-1.7-2.8-3.3-.5-1.7-.6-3.6-1.1-5.4-1.4-5.4-2.8-10.9-3.5-16.4-.5-3.9-1.7-7.7-2.5-11.7-.3.2-.8.3-.9.5-.5 1.6-1.1 3.3-1.1 4.9.2 5.5-2.4 10.3-4.1 15.2-.9 2.8-3.3 4.7-6.5 5.1-5.5.5-10.9-.5-15.9-2.7-3-1.3-5.4-3.6-6.8-6.6-1.7-3.2-3.8-6.2-4.7-9.6-.3-.9-1.1-1.6-1.6-2.4-1.3 0-1.9.6-2.2 1.4-.9 3.3-2.2 6.5-2.7 9.8-.6 4.6-2.4 8.8-3.3 13.4-.3 1.9-1.4 3.9-2.4 5.5-1.4 2.2-3.3 3.8-6.3 3.5-2.4-.3-4.7-.5-6.9-.8-1.7-.3-3.2-1.1-4.3-2.5-2.5-3.5-3.9-7.4-5.4-11.5-1.1-3.3-1.4-6.6-1.7-9.9 0-.9-.3-1.7-1.3-1.9-.9-.2-1.6.5-2.1 1.3-.6 1.1-1.1 2.1-1.6 3.2-1.3 3-2.8 5.8-5.4 8.1-.5.5-.9.9-1.3 1.6-2.4 4.1-6.3 6-10.4 7.7-1.4.6-2.8 1.1-4.3 1.6-1.7.5-3.5 1.1-5.5.3-.9-.3-2.1 0-3 0-6.8-.3-12.6-2.5-17.2-7.7-2.7-3-4.6-6.2-6.2-9.8-1.7-4.3-2.5-8.7-3.5-13.3-.9-4.7-1.1-9.5-1.1-14.2 0-1.9 0-3.6.3-5.5.3-1.6.3-3.3.2-5.1-.2-2.4.2-4.7.8-6.9.6-2.1.8-4.3 1.3-6.5.6-3.3 2.2-6.5 3.5-9.5 1.3-3.3 3.2-6.5 4.6-9.6 1.4-3.3 3.9-5.1 7.4-5.4 3.8-.3 7.4-.3 11.2-.5.5 0 1.1 0 1.4.2 5.5 2.1 10.3 4.9 13.9 9.8 3.9 5.5 6 11.7 8.4 18 .3.8.3 1.7.3 2.5.3 2.4 0 4.6-2.4 5.7-2.4 1.3-4.7 1.6-7.3 0-1.1-.6-1.7-1.6-2.2-2.7-2.1-6.2-5.5-11.7-8.1-17.5-1.3-3-3.6-4.9-5.2-7.4-.5-.8-2.2-.8-2.8 0-1.1 1.4-2.4 3-3.2 4.6-2.5 5.1-5.1 9.9-6.2 15.6-.6 3-1.6 5.8-1.4 9 0 .6.2 1.4 0 2.1-1.3 3.8-.8 7.7-.6 11.7 0 3.5.2 6.8.3 10.3.2 4.9 1.1 9.8 2.8 14.4 2.1 5.7 4.6 9.9 8.2 13.1 1.1.9 2.5 1.7 3.9 2.4 1.6.8 3.3.6 4.9-.3 2.2-1.3 4.4-2.5 6.5-3.9 3.9-2.8 6.5-6.9 8.7-11.2 2.5-4.7 5.8-15 7.3-20.7.3-1.4.9-2.8 1.3-4.4.8-2.8 1.1-5.7 1.4-8.5.5-4.7.3-9.5.5-14.2 0-2.1.5-4.1.8-6 .8-5.8 1.4-11.7 3.5-17.4 1.6-4.1 4.1-7.4 7.4-10.1 3.3-2.7 7.6-2.8 11.7-2.4 2.1.2 4.1.6 6 .6 4.4 0 8.4 1.9 11.5 4.7 2.7 2.4 4.1 5.8 4.3 9.5.2 5.7.3 11.2.6 16.9.5 7.9.6 15.8 2.2 23.5 1.3 6.6 2.4 13.4 5.2 19.6 1.3 2.5 2.4 5.2 3.9 7.7.9 1.6 2.2 3.2 4.1 3.8 1.6-1.1 2.1-2.7 2.5-4.3 1.6-4.6 3-9.3 4.1-14.1.6-3.2 1.1-6.3 1.4-9.5.5-3.9.5-8.1 1.3-12 .3-1.4 0-3 0-4.6.3-4.6.5-9.2.9-13.7.2-2.2.6-4.3.6-6.5.2-2.1-.2-4.1-.2-6.2 0-2.1-.2-4.1 0-6.2.2-3 1.1-3.9 3.9-4.1 1.6-.2 3-.2 4.6 0 2.7.2 3.8.9 4.4 3.3 1.3 4.6 2.1 9.2 2.5 13.9.3 3.6.9 7.4 1.6 11.1 0 .5.3.9.8 1.3.3.2 1.1.3 1.3 0 .5-.5.8-1.1.9-1.7.6-2.8 1.3-5.5 2.1-8.4.3-1.3.5-2.7.9-3.9.6-1.9 2.1-3.3 2.4-5.5.2-1.9 1.6-3.8 2.4-5.5.2-.3.5-.5.8-.9 2.7.2 5.4-1.7 8.2-.8 3-.6 4.7 1.3 6 3.5.9 1.6 1.7 3.3 2.2 5.2 1.6 6.3 3.8 12.6 4.7 19.3.6 3.8 1.6 7.6 2.5 11.4.2.9.6 1.9.9 2.8.3.9.8 1.9.8 2.8.3 4.4 1.7 8.7 2.7 12.9 1.4 7.1 3.9 13.9 6.2 20.8 1.3 3.9 3 7.6 3.9 11.5.9 1.6 2.1 2.6 3.7 3zM333.8 100c-.3-.2-.9-.6-1.6-.9-2.2-1.4-4.3-1.1-5.8.9-1.7 2.4-3.2 4.7-4.9 7.1-3.6 5.1-5.2 11.1-7.1 16.9-.9 2.5-1.7 5.4-1.6 7.9.2 4.6-.3 9 .2 13.6.3 3.8.8 7.7 1.3 11.5.5 4.1.9 8.1 1.6 12.2.3 2.1 1.1 3.9 1.7 5.8.3 1.1.3 2.8 1.7 2.8 1.7.2 1.6-1.9 2.2-3 .2-.2.2-.3.2-.5 1.7-6.2 2.5-12.6 4.9-18.6 0-1.9.8-3.6 1.6-5.2.6-1.3.8-3 1.1-4.4.3-2.1.5-4.1 1.1-6 .6-1.9.8-3.6.6-5.5-.5-4.3.6-8.5.9-12.6.5-4.7.5-9.5-.3-14.2-.5-2.7-.2-5.1 2.1-6.8 0-.1 0-.2.1-1zm147.5-15.8c2.4.6 4.6.3 6.6.2 9-.2 18-.5 27-.5 3.3 0 6.8.3 10.1.6 1.3.2 2.7.6 3.8 1.1 1.4.6 2.1 1.4 1.7 2.1-.5 1.1-1.6 1.3-2.5 1.3-1.9 0-3.6-.5-5.5-.5-5.7 0-11.2.2-16.9.2-1.9 0-3.8-.2-5.5-.2-1.7 0-3.3 0-5.1.2-3.8.3-7.4.6-11.1.8-.8 0-1.6.3-2.2.3-1.6 1.4-1.7 3-1.7 4.7.2 4.6.2 9.2.3 13.7 0 2.7.2 5.2.2 7.9-.2 2.7.3-.2.8 2.5.2 1.1.3 2.2 0 3.3-.2.8-.3 1.7 0 2.4 1.1 2.1.6 4.3.8 6.3.2 2.1 0 4.4.5 6.3.5 2.1-.2 3.9.2 5.8 1.4 8.5 1.1 17.4 3.5 25.7.2 3.6 1.4 7.1 2.5 10.4 1.4 4.4 4.3 8.2 7.3 11.7 1.3 1.4 3.2 2.5 4.9 3.5 1.4.8 3.2.5 4.1-.8 1.3-1.7 3.2-3 3.6-5.4.2-.9.9-1.7 1.4-2.5.3-.5 1.6-.3 1.9 0 .2.3.5.5.6.8.3 1.1.9 2.2.9 3.3.2 6.9-1.6 8.2-8.8 9.5-6.5-.6-12.8-1.4-18.5-4.6-7.1-4.1-12-9.9-14.8-17.4-1.1-2.8-2.1-5.8-2.4-9-.3-2.2-.6-4.6-1.4-6.8-.9-2.5-.9-5.2-1.1-7.7-.2-1.6-.8-3.3-.8-4.9.3-4.1-.8-8.1-.6-12.2.2-3.9-.3-7.9-.5-11.8-.2-1.9 0-3.9-.6-5.8-.3-.8-.2 3.9 0 3.2.3-3.2-.3-6.2-.3-9.3-.2-3.3-.2-6.6-.3-9.8-.1-3.2-.2-6.3-.2-9.3 0-.5 0-.9-.2-1.4-.2-.9-.8-1.4-1.7-1.6-.3 0-.6-.2-.9-.2-4.1.2-8.1-.2-12.2-.5-3.2-.3-6.5-.5-9.6-.8-3.3-.5-6.5-1.7-9.8-2.8-.3 0-.5-.5-.5-.8 0-.2.3-.6.5-.6 3.3-.5 6.8-.5 10.1 0 2.5.3 5.1 1.1 7.6.9 2.4-.2 4.7.3 7.1.2 2.5-.2 5.1-.2 7.6-.3 1.3 0 2.4-.9 2.4-2.2-.2-4.3 1.1-8.4 0-12.6-.3-1.1-.2-2.2 0-3.5.2-3.8.6-7.7-.3-11.5-.5-1.6-.3-3.3-.3-4.9 0-1.3.6-1.9 1.7-1.9 4.1.3 8.1 1.3 11.5 3.5 2.1 1.3 3 2.8 3.2 5.2.2 3 .6 5.8.9 8.8 0 .6 0 1.3-.2 1.9 0 .6-.3 1.4-.2 1.9 1.1 3.9.6 8.2 1.3 12.2-.2 1.1-.2 1.2.1 1.7z"/><path d="M432.2 88c-2.5-1.4-4.4-3.2-5.5-5.5-.3-.6-.5-1.3-.8-1.9-3.2-5.1-4.4-10.9-5.8-16.6 0-.3.2-.6.3-1.3 1.7-.5 3.3-.3 5.1.6 3.3 1.7 4.6 4.9 5.8 7.9.8 1.9 1.3 3.8 1.7 5.8.8 3.6 1.4 7.1-.8 11zm557.2 287.7c1.9 4.9 4.9 8.8 8.1 12.8 2.4 3 3.6 6.2 4.1 10.4-1.1-.2-2.1-.2-2.8-.5-3.6-1.7-6.3-4.7-8.7-7.6-2.7-3.2-5.1-6.3-8.1-9.9-1.7 1.3-3.6 2.5-5.2 3.8-4.7 3.8-9.9 7.1-15.6 9.8-6 2.8-12.3 3.5-18.8 1.4-1.3-.5-2.5-.6-3.9-1.1-3.8-1.1-5.2-2.8-5.5-6.6-.6-8.1 1.4-15.6 5.4-22.7 3.3-6.2 7.1-12.3 10.7-18.3 1.6-2.7 3.5-5.4 5.5-7.9 1.1-1.4 1.4-2.8.6-4.6-2.5-5.7-3.6-11.7-4.7-17.7-1.6-9.2-1.1-18.2 1.9-26.8 1.1-3 3-6 5.1-8.5 2.5-3 5.7-5.7 8.5-8.5 4.6-4.6 10.4-5.7 16.9-5.4 2.7.2 5.4.6 8.1 1.3 5.5 1.3 8.4 5.1 8.5 10.1.5 9-2.5 17.4-6.5 25.4-4.3 9-11.1 16.7-16.4 25.3-1.3 2.1-2.7 4.3-4.3 6.2-1.3 1.7-1.7 3.3-.8 5.4 1.7 3.6 3.3 7.3 5.1 10.9 2.1 4.3 4.4 8.4 6.6 12.5.5.9 1.3 1.7 2.2 3 4.4-3.5 8.5-6.8 12.8-9.9 4.3-3.2 6.9-7.7 12.2-11.1.2 1.6.5 2.7.3 3.6-.9 5.7-4.3 10.3-8.7 14.4-3.6 3.3-7.4 6.3-11.2 9.5-.4 0-.9.7-1.4 1.3zm-27-25.9c-.8 1.1-1.4 1.9-2.1 2.8-4.3 7.1-7.9 14.5-11.2 22.1-1.9 4.4-2.8 9.2-2.5 13.9 0 1.3.5 2.5.8 3.8 6.5-2.1 25.1-14.5 29.7-19.7-4.6-7.4-9.5-15-14.7-22.9zm24.3-76.6c-2.4 1.3-4.3 2.1-5.8 3.2-3 2.4-5.8 4.7-8.4 7.4-2.1 2.4-4.1 5.1-5.2 7.9-4.3 10.1-3.5 20.5-1.1 31.6.9-1.1 1.7-1.9 2.2-2.7 3.6-5.5 7.4-10.9 10.7-16.4 2.2-3.6 4.6-7.4 6-11.4 2.4-5.9 4-12.2 1.6-19.6zm111.7-10.1c5.4.5 9.9 3.6 13.9 7.1 5.4 4.9 11.1 10.1 12.9 17.4 1.6 6 2.8 12 3.3 18.2 1.3 18.9-2.1 37.7-4.6 56.4-1.4 10.7-5.4 20.5-10.3 29.8-2.5 4.9-6.3 8.8-11.5 10.7-1.6.6-3.6 1.1-5.2.6-8.5-2.4-15.8-6.3-18.5-15.5-3.2-10.6-4.6-21.3-4.9-32.2-.8-21.3 2.4-42 9.8-61.9 3.2-8.4 7.7-16.1 11.8-24.2.9-2 2-4 3.3-6.4zm10.7 13.3c-.9 1.4-2.1 2.7-2.7 4.1-3 6.6-6.3 13.3-8.8 20.1-5.5 14.4-8.1 29.5-9.6 44.8-1.6 15.9-.2 31.6 3.8 47.1.5 1.6 1.4 3 2.4 5.2 1.7-1.6 3.3-2.5 4.1-3.8 5.4-8.5 9.9-17.5 11.8-27.6.9-5.4 1.3-11.1 2.4-16.4 2.8-12.8 3.2-25.9 4.3-38.8.6-7.9-.5-15.9-1.7-23.8-.5-4-1.6-8.2-6-10.9zm-101.8-18.2c6.2-2.5 13.1.3 15.2 6.6 3.6 11.1 6.9 22.1 10.4 33.2 1.6 4.7 3.2 9.5 5.1 15.3 1.1-2.4 1.7-3.6 2.2-4.9 4.4-12.6 9.9-24.8 16.4-36.5 3.8-6.9 8.1-13.7 12-20.7.9-1.7 2.2-2.8 4.3-2.2 2.5.6 5.2 1.1 7.6 2.1 4.3 1.7 5.1 4.3 2.7 8.1-3.2 5.2-6.6 10.1-9.6 15.3-3.9 6.8-7.7 13.6-11.1 20.7-5.5 11.8-10.4 23.8-15.6 35.8-.9 2.2-1.6 4.6-1.7 6.9-.9 19.1-2.1 38.4-.5 57.5.3 3.8.9 7.4 1.4 11.2.5 3.8-1.3 5.5-4.7 4.1-3.2-1.1-6.3-2.8-8.7-5.2-1.6-1.4-2.1-4.4-2.2-6.6-.6-9.9-1.3-19.9-1.3-29.7-.2-8.7.5-17.2.6-25.9 0-1.1 0-2.4-.2-3.5-3.6-15.6-6.2-31.7-11.2-47.1-3.6-11.4-7.3-22.8-11.1-34.5zm175.5 11.9c4.6-.2 10.4.3 12.2 4.6.6 1.4.6 3 .6 4.6.3 24.6 4.6 52.7.2 77.1-3 16.3-4.4 34.7-13.1 49.3-7.1 11.8-33.9 15.5-39.3 0-3.3-9.5-4.7-18.9-5.4-28.9-1.1-16.3 0-32.4.6-48.6.3-8.7 1.9-17.4 1.6-26.1-.3-10.6-.8-21.3-1.1-31.9 0-.5.2-.9.3-1.4 10.1.5 16.1 5.8 16.3 14.8.3 23.5-.9 47.1-1.4 70.6-.2 10.4-1.3 21-.3 31.4.3 3.9.2 12 2.8 15.3 10.6 12.8 25.3-36.6 25.3-68.5.3-21-2.7-41.8.7-62.3z"/><path d="M615.8 130.3c5.8-1.7 12.3.9 15.5 6 .9 1.6 2.1 3 3.2 4.7 4.7-.3 9.5-.6 14.5-1.1.5-1.7 1.1-3.2 1.4-4.6.9-5.2 3-9.9 5.5-14.5 4.4-8.1 11.4-18.5 22.6-14.5 5.8 2.1 10.7 13.4 9.3 19.1-1.6 6-8.2 24.3-27.3 22.9-1.4 11.7-3.2 20.7 4.1 30.5 2.2 3 5.2 5.2 8.5 7.1 2.8 1.6 5.8 2.1 9.3 1.6 6.3-.9 6.6-1.1 11.4-5.1 3.9-3.5 6.5-8.1 10.9-11.2.8-.6 1.4-1.3 2.4-1.6.6-.3 1.7-.2 2.2.2 1.9 1.3 2.2 2.7 1.3 4.6-10.1 19.9-30 22.1-45 12.2-12.2-8.2-14.8-18.3-16.4-31.9-.2-2.1-.3-4.1-.5-6.2-.2-.8-.3-1.7-.6-2.7-3.9-.2-7.6-.3-11.4-.5 0 .8-.2 1.1 0 1.4 6.9 15.8-11.8 66.5-33.6 56.2-5.7-2.7-10.9-6.2-12.6-12.5-.9-3.9-1.9-7.9-2.5-12-.6-4.7-.9 2.1-1.4-2.7-.2-1.1-.3-2.2-.6-3.9-1.3 1.4-2.1 2.2-2.8 3.2-2.2 2.2-4.6 4.6-6.9 6.8-1.7 1.7-3.6 1.7-5.7.6-1.6-.8-3-1.7-4.4-2.5.2-.6.2-.9.3-1.1 5.2-3.2 7.9-8.2 11.4-12.8 2.4-3.2 4.7-6.3 6.9-9.6.9-1.4 1.7-3 2.1-4.6.6-5.5 1.1-11.2 1.6-16.7.9-10.1 1.7-20.2 2.7-30.2 1.3-13.4 4.1-26.7 8.1-39.6 1.4-4.6 3.2-9 4.9-13.6.6-1.9 1.4-2.2 3.5-1.9 3.6.5 6.5 2.2 8.1 5.4 2.5 5.1 3.6 10.4 4.9 15.8 2.4 10.7.6 21.3-2.2 31.9-3.6 14.1-8.8 27.6-14.8 40.9-.6 1.3-1.1 2.7-1.9 3.8-2.5 3.5-2.8 7.3-2.8 11.1 0 8.4 0 16.6.6 24.9.5 6.6 1.6 1.7 2.7 8.2.3 2.4.9 4.7 2.7 6.6 16.3-.5 24.2-34.7 23.2-46.6-.3-2.8-1.1-5.5-1.7-8.2-.3-1.7-1.4-3-3-3.9-1.4-.8-2.7-1.7-3.9-2.8-2.8-1.5-4.5-3.6-3.8-6.6zM602.9 118c.3-.8.8-1.6 1.1-2.4 1.6-5.2 3.3-10.3 4.7-15.5 2.1-7.4 3.5-15 3.5-22.7 0-1.6-.3-3.3-.5-4.9-.2-1.6 0-3.2-.9-4.9-3.5 10-9.3 40.3-7.9 50.4zm58.1 21.9c11.1 1.7 24.6-22.7 11.1-23.1-4.3 1.4-11.9 17.3-11.1 23.1z" stroke="#FFF" stroke-width=".587"/><path d="M804.2 139.2c1.7-1.4 3.3-2.8 4.9-4.3 5.4-4.6 7.4-6.2 14.1-9.2 2.2-.9 3.9-1.1 6 .9-6.8 9-13.9 11.7-20.4 20.7 3.2 5.5 6.2 10.7 9 15.9.8 1.4 1.4 2.8 1.7 4.4.5 2.2-.8 3.8-3 4.1-2.8.3-4.7-1.1-6.2-3.5-2.1-3.3-4.3-6.5-6.3-9.8-.5-.8-1.1-1.3-1.6-1.9-2.5-.3-3.6 1.4-5.1 2.7-4.3 3.9-8.5 8.2-13.7 10.9-3.6 1.9-7.4 3.3-11.4 4.6-3.3 1.1-6.8.3-9.9-.9-4.6-1.7-6.6-5.1-6.5-9.9.2-2.5.5-4.9.9-7.3 3.6-15.2 7.9-30 14.8-44.1 1.3-2.7 1.6-5.2.9-8.1-.9-3.8-1.4-7.6-1.4-11.5 0-7.7.5-15.5 2.4-23.1 1.3-4.7 3.2-8.8 6.3-12.6 3.9-4.7 9.3-5.8 14.8-5.4 3.6.3 6.5 3 8.1 6.3 2.1 4.1 2.5 8.5.8 12.8-1.7 4.6-3.6 9.2-5.8 13.6-3.2 6.5-6.5 12.9-9.9 19.3-2.4 4.4-2.2 8.7.6 12.9 4.4 6.6 8.7 13.3 13.1 19.9.8 1 1.7 1.6 2.8 2.6zm-23.4-14.1c-2.2.9-2.5 2.8-3 4.4-2.7 8.5-5.4 17.1-7.6 25.7-.9 3.3-.9 6.9-1.3 10.4-.2 1.4.3 2.8 1.9 3.5 2.5.2 4.3-1.4 6-2.8 5.8-4.6 11.2-9.8 16.1-15.3 3-3.3 3-3.8.8-7.3-3.5-5.5-7.1-10.9-10.6-16.4-.5-.6-1.5-1.4-2.3-2.2zm1.8-36.3c.3-.2.8-.2.9-.5 4.3-6.8 7.7-13.9 9.8-21.5 1.1-3.8-.3-6.8-2.8-9.5-6.7 5-11.4 23.8-7.9 31.5zm287.8-34.9c-6.9 1.1-13.9.6-20.8-.3-6.3-.8-12.6-1.6-18.9-1.9-11.4-.5-22.7-.5-33.9-.8-3.3 0-6.8-.2-10.1-.5-2.7-.2-3.6-1.3-3.5-3.6.3-2.8.9-5.5 1.1-8.4.2-3.3.3-6.8.2-10.3-.2-1.4-.6-3.3-1.7-3.9-3.2-1.9-6.5-3.6-11.2-2.2.2 9.2-2.1 17.8-3.2 26.8-10.7 1.4-20.7-3.5-32.1-.8 1.9.9 2.5 1.6 3.3 1.7 6.9 2.2 14.2 3.3 21.6 3.9 2.4.2 4.7.3 6.6 2.4-.6 9.3-1.4 18.8-2.2 28.3-.2 1.9-.6 3.8-1.1 5.5-3 11.2-7.6 21.9-12 32.5-3.9 9.3-8.2 18.5-14.4 26.7-1.6 2.2-3.2 4.4-6.5 5.8-5.1-3.6-7.6-8.4-9.2-13.7-1.3-4.4-1.9-8.8-2.7-13.4-.8-4.7-.9-9.3.9-13.9 1.4-3.5 3-6.9 4.3-10.6 3.5-9.5 6.8-18.9 9.9-28.6 1.3-3.8.5-7.6-1.1-11.1-1.1-2.5-3.2-4.1-6-5.1-3.8-1.3-7.4-.8-11.7-.2-1.3 2.1-2.8 4.3-3.9 6.5-5.1 9.5-6.5 19.9-6.8 30.3-.3 9.6-1.1 19.3 0 28.9 0 .6.3 1.1.2 1.7-.5 3.5-1.6 6.8-4.9 9.2-.5-.9-.9-1.4-.9-2.1-1.6-11.1-3.2-22.1-4.4-33.3-.5-4.6-.3-9.2-.3-13.6 0-2.8-.8-5.4-3.5-6.8-2.8-1.4-5.8-2.5-8.4 0-.5 8.7-.9 16.9-1.4 25.3-.5 9.3-2.5 18.3-6.2 27-3.2 7.4-6.3 14.7-9.3 22.1-2.4 5.8-6.5 10.4-11.4 14.2-.6.5-1.7.6-2.8.9-2.8-3.6-3.3-7.4-3.2-11.5.6-10.6 1.4-21.2 1.9-31.7.6-13.1.9-26.1 1.3-39.2.2-6.6-2.1-8.8-9-9.3h-2.4c-3.6 0-5.4.6-5.4 5.1 0 10.1-.3 20.1-.8 30.2-.3 9.8-1.1 19.7-1.3 29.5-.2 6.5-.6 12.8 1.3 19.3 3.5 11.4 16.6 15.9 27 9.5 3.3-2.1 5.5-4.7 7.7-7.7 5.7-7.6 7.4-16.6 11.4-24.8 1.1-2.5 1.6-5.2 3.8-7.3.6.6 1.1.8 1.1 1.1 1.1 8.1 2.2 16.1 3.2 24.2.6 4.7 1.4 9.3-.3 14.1-1.9 5.4-3.3 10.9-4.7 16.4-1.3 4.6-2.2 9.2-3.6 13.7-3.3 10.9-4.9 7.3-3.9 18.5.3 3.9 1.4 7.4 3.5 10.7.8 1.3 1.9 2.4 3.2 3.3 3.9 2.5 8.4 3.3 13.1 3.3 3 0 5.5-1.3 6.9-3.8 1.4-2.7 2.7-5.5 3.5-8.4 2.2-8.2 2.4-16.6 2.1-24.9-.6-16.3-1.9-18-4.7-34.1-1.3-6.8.3-12.6 3.8-18.5.6-1.1 1.7-1.9 2.5-2.7.6.2.8.3.9.3.6.8 1.3 1.4 1.9 2.2 4.1 5.4 8.7 10.1 15.6 12.6 7.1 2.5 14.4 1.9 19.6-3.3 2.4-2.5 4.3-5.4 6.3-8.2 4.7-7.1 7.6-15 11.1-22.6.3-.9 1.1-1.6 2.2-3 .6 2.5.9 4.1 1.3 5.8 2.1 8.8 3.6 17.8 6.6 26.5 3.8 10.6 9.6 18.8 20.4 23.8 8.1 3.8 15.8 4.6 24 1.4 1.9-.8 3.8-2.1 5.4-3.5 2.8-2.8 2.4-5.8-1.6-9.3-.6.8-1.3 1.9-2.1 2.7-3.2 3-6.9 4.9-11.2 6.3-5.1 1.7-9 .6-12.2-3.3-.8-.9-1.6-1.7-2.1-2.8-4.4-7.9-7.6-16.3-9.2-25.1-.6-3.5-1.4-7.1-1.9-10.6-1.1-7.3-2.2-14.7-2.8-21.9-.8-9.8-1.1-19.6-1.3-29.5-.2-8.7.8-17.4 2.1-26.5 2.2-.2 4.1-.5 6-.5 9.5.3 18.9.5 28.6.9 12.2.6 24.2 1.6 36.3 2.4 3.6.2 7.1.5 10.7.5 4.6-.2 8.7-1.6 13.1-4.1-3-1.1-5.1-1.1-7.3-.8zM893.3 219.5c-.5 3.6-.8 7.4-3.2 10.6-2.7-.2-3.9-1.7-4.6-3.5-1.1-2.8-2.4-5.7-2.7-8.7-.8-9.5.3-4.4 2.5-13.6.8-3 1.4-5.8 2.2-8.8.6-2.2 1.3-4.3 3.2-6.8.8 1.6 1.7 2.5 1.7 3.3 1.2 14.3 2.8 13.6.9 27.5zm23.6-122.2s-2.5-33.9 7.7-28.1c10.3 5.9-7.7 28.1-7.7 28.1z"/></g></g><path d="M1176.09 353.857s-1.06 4.258-5.094 8.25c-4.034 3.994 1.899 7.38 1.899 7.38s4.499-1.302 6.264-2.948c1.766-1.645-3.068-12.682-3.068-12.682z" fill="#FFF"/></g></svg>